<?xml version="1.0" encoding="UTF-8"?><svg id="Capa_2" xmlns="http://www.w3.org/2000/svg" xmlns:xlink="http://www.w3.org/1999/xlink" viewBox="0 0 1771.85 1096.78"><defs><style>.cls-1{fill:url(#linear-gradient-2);}.cls-2{fill:#fff;}.cls-3{fill:url(#linear-gradient-17);}.cls-4{fill:#4a98a5;}.cls-5{fill:url(#linear-gradient-15);}.cls-6{fill:url(#linear-gradient-18);}.cls-7{fill:url(#linear-gradient-28);}.cls-8{fill:url(#linear-gradient-14);}.cls-9{fill:url(#linear-gradient-36);}.cls-10{fill:url(#linear-gradient-20);}.cls-11{fill:url(#linear-gradient-6);}.cls-12{fill:#f9c9a1;}.cls-13{fill:#ffd9b4;}.cls-14{fill:url(#linear-gradient-35);}.cls-15{fill:url(#linear-gradient-32);}.cls-16{fill:#f97d7a;}.cls-17{fill:url(#linear-gradient-11);}.cls-18{fill:#e83e21;}.cls-19{fill:#f2b33d;}.cls-20{fill:#f29e5f;}.cls-21{fill:url(#linear-gradient-10);}.cls-22{fill:#ce6824;}.cls-23{fill:#fcc28d;}.cls-24{fill:url(#linear-gradient-37);}.cls-25{fill:#ffbb6e;}.cls-26{fill:url(#linear-gradient-16);}.cls-27{fill:url(#linear-gradient-31);}.cls-28{fill:#ffe45f;}.cls-29{fill:#f7ab6d;}.cls-30{fill:#edfcfc;}.cls-31{fill:url(#linear-gradient-21);}.cls-32{fill:url(#linear-gradient-25);}.cls-33{fill:#ba1609;}.cls-34{fill:url(#linear-gradient-5);}.cls-35{fill:#fccea7;}.cls-36{fill:#b9e1ea;}.cls-37{fill:url(#linear-gradient-34);}.cls-38{fill:url(#linear-gradient-7);}.cls-39{fill:url(#linear-gradient-24);}.cls-40{fill:url(#linear-gradient-9);}.cls-41{fill:url(#linear-gradient-22);}.cls-42{fill:#f3e7db;}.cls-43{fill:#c4f0f7;}.cls-44{fill:url(#linear-gradient-3);}.cls-45{fill:#ffd45c;}.cls-46{fill:url(#linear-gradient);}.cls-47{fill:url(#linear-gradient-27);}.cls-48{fill:url(#linear-gradient-33);}.cls-49{fill:url(#linear-gradient-38);}.cls-50{fill:url(#linear-gradient-29);}.cls-51{fill:#ffecdd;}.cls-52{fill:url(#linear-gradient-30);}.cls-53{fill:url(#linear-gradient-23);}.cls-54{fill:#9e3a16;}.cls-55{fill:url(#linear-gradient-19);}.cls-56{fill:url(#linear-gradient-4);}.cls-57{fill:url(#linear-gradient-8);}.cls-58{fill:url(#linear-gradient-12);}.cls-59{fill:url(#linear-gradient-13);}.cls-60{fill:url(#linear-gradient-26);}</style><linearGradient id="linear-gradient" x1="1238.5" y1="-238.01" x2="1186.74" y2="893.69" gradientUnits="userSpaceOnUse"><stop offset=".4" stop-color="#9fc6d1"/><stop offset=".93" stop-color="#65aaba"/></linearGradient><linearGradient id="linear-gradient-2" x1="1059.65" y1="124.18" x2="1304.31" y2="283.54" xlink:href="#linear-gradient"/><linearGradient id="linear-gradient-3" x1="1267.09" y1="-62.5" x2="1243.04" y2="188.44" xlink:href="#linear-gradient"/><linearGradient id="linear-gradient-4" x1="1229.91" y1="2.71" x2="1238.47" y2="42.26" xlink:href="#linear-gradient"/><linearGradient id="linear-gradient-5" x1="1149.29" y1="113.45" x2="1150.9" y2="293.84" xlink:href="#linear-gradient"/><linearGradient id="linear-gradient-6" x1="1197.79" y1="113.02" x2="1199.39" y2="293.41" xlink:href="#linear-gradient"/><linearGradient id="linear-gradient-7" x1="1237.43" y1="112.67" x2="1239.04" y2="293.06" xlink:href="#linear-gradient"/><linearGradient id="linear-gradient-8" x1="1293.19" y1="112.17" x2="1294.79" y2="292.56" xlink:href="#linear-gradient"/><linearGradient id="linear-gradient-9" x1="1291.42" y1="741.14" x2="1160.74" y2="398" gradientUnits="userSpaceOnUse"><stop offset=".4" stop-color="#ffd9b4"/><stop offset=".93" stop-color="#f3e7db"/></linearGradient><linearGradient id="linear-gradient-10" x1="1059.55" y1="180.64" x2="815.74" y2="376.71" gradientUnits="userSpaceOnUse"><stop offset=".48" stop-color="#9fc6d1"/><stop offset=".93" stop-color="#65aaba"/></linearGradient><linearGradient id="linear-gradient-11" x1="852.55" y1="239.98" x2="1038.45" y2="725.58" xlink:href="#linear-gradient-10"/><linearGradient id="linear-gradient-12" x1="974.91" y1="655.2" x2="930.72" y2="424.59" gradientUnits="userSpaceOnUse"><stop offset=".4" stop-color="#f3e7db"/><stop offset=".93" stop-color="#fff"/></linearGradient><linearGradient id="linear-gradient-13" x1="16.08" y1="326.7" x2="373.81" y2="719.59" gradientUnits="userSpaceOnUse"><stop offset=".4" stop-color="#e83e21"/><stop offset=".93" stop-color="#ce1611"/></linearGradient><linearGradient id="linear-gradient-14" x1="788.11" y1="723.54" x2="1448.12" y2="439.33" gradientUnits="userSpaceOnUse"><stop offset=".4" stop-color="#f7ab6d"/><stop offset=".93" stop-color="#e58645"/></linearGradient><linearGradient id="linear-gradient-15" x1="818.3" y1="793.66" x2="1478.32" y2="509.45" xlink:href="#linear-gradient-14"/><linearGradient id="linear-gradient-16" x1="248.62" y1="670.23" x2="554.54" y2="824.68" gradientTransform="translate(686.43 -99.7) rotate(45)" xlink:href="#linear-gradient-14"/><linearGradient id="linear-gradient-17" x1="447.68" y1="313.79" x2="568.01" y2="477.22" xlink:href="#linear-gradient-14"/><linearGradient id="linear-gradient-18" x1="603.82" y1="552.51" x2="1095.02" y2="806.64" xlink:href="#linear-gradient-14"/><linearGradient id="linear-gradient-19" x1="-28.69" y1="587.79" x2="459.82" y2="876.04" xlink:href="#linear-gradient-14"/><linearGradient id="linear-gradient-20" x1="1142" y1="904.81" x2="1312.55" y2="1070.45" gradientTransform="translate(-137.73 267.14) rotate(60.63) scale(1 -1)" gradientUnits="userSpaceOnUse"><stop offset=".08" stop-color="#ffbb6e"/><stop offset="1" stop-color="#ff9a00"/></linearGradient><linearGradient id="linear-gradient-21" x1="1586.98" y1="-1055.4" x2="1767.33" y2="-1855.22" gradientTransform="translate(122.14 -701.77) rotate(25.02) scale(1 -.76)" gradientUnits="userSpaceOnUse"><stop offset="0" stop-color="#ffbb6e"/><stop offset="1" stop-color="#fff"/></linearGradient><linearGradient id="linear-gradient-22" x1="1167.4" y1="828.43" x2="1312.45" y2="1157.09" gradientTransform="translate(-137.73 267.14) rotate(60.63) scale(1 -1)" gradientUnits="userSpaceOnUse"><stop offset="0" stop-color="#ffbb6e"/><stop offset=".16" stop-color="#ffb865"/><stop offset=".4" stop-color="#ffb14f"/><stop offset=".7" stop-color="#ffa72c"/><stop offset="1" stop-color="#ff9a00"/></linearGradient><linearGradient id="linear-gradient-23" x1="1006.96" y1="684.23" x2="1331.69" y2="1175.57" gradientTransform="translate(-137.73 267.14) rotate(60.63) scale(1 -1)" gradientUnits="userSpaceOnUse"><stop offset="0" stop-color="#ffbb6e"/><stop offset="1" stop-color="#ff9a00"/></linearGradient><linearGradient id="linear-gradient-24" x1="1563.21" y1="-358.41" x2="1438.23" y2="-263.48" gradientTransform="translate(127.1 448.53) rotate(13.77)" gradientUnits="userSpaceOnUse"><stop offset=".54" stop-color="#ffd9b4"/><stop offset=".93" stop-color="#f29e5f"/></linearGradient><linearGradient id="linear-gradient-25" x1="1509.29" y1="825" x2="1540.42" y2="321.63" gradientTransform="matrix(1,0,0,1,0,0)" xlink:href="#linear-gradient-24"/><linearGradient id="linear-gradient-26" x1="1522.42" y1="493.5" x2="1520.27" y2="385.21" gradientUnits="userSpaceOnUse"><stop offset=".4" stop-color="#ae451d"/><stop offset=".93" stop-color="#ff9a00"/></linearGradient><linearGradient id="linear-gradient-27" x1="1543.59" y1="111.28" x2="1516.4" y2="361.71" xlink:href="#linear-gradient-26"/><linearGradient id="linear-gradient-28" x1="1537.07" y1="792.88" x2="1507.98" y2="529.09" xlink:href="#linear-gradient-26"/><linearGradient id="linear-gradient-29" x1="1338.64" y1="523.35" x2="1659.19" y2="789.53" gradientUnits="userSpaceOnUse"><stop offset="0" stop-color="#ffbb6e"/><stop offset=".86" stop-color="#ff9a00"/></linearGradient><linearGradient id="linear-gradient-30" x1="1665.35" y1="880.46" x2="1518.67" y2="648.63" xlink:href="#linear-gradient-26"/><linearGradient id="linear-gradient-31" x1="1701.97" y1="550.41" x2="1483.02" y2="297.11" xlink:href="#linear-gradient-26"/><linearGradient id="linear-gradient-32" x1="1906.53" y1="1084.85" x2="1499.76" y2="624.41" gradientUnits="userSpaceOnUse"><stop offset=".48" stop-color="#ae451d"/><stop offset=".9" stop-color="#ff9a00"/></linearGradient><linearGradient id="linear-gradient-33" x1="1636.1" y1="454.49" x2="1402.12" y2="774.33" xlink:href="#linear-gradient-32"/><linearGradient id="linear-gradient-34" x1="1431.8" y1="193.7" x2="1503.71" y2="299.24" xlink:href="#linear-gradient-26"/><linearGradient id="linear-gradient-35" x1="1221.97" y1="-897.68" x2="1293.88" y2="-792.14" gradientTransform="translate(80.33 627.7) rotate(18.99)" xlink:href="#linear-gradient-26"/><linearGradient id="linear-gradient-36" x1="1453.9" y1="539.82" x2="1481.45" y2="773.79" gradientUnits="userSpaceOnUse"><stop offset=".4" stop-color="#ffe45f"/><stop offset=".93" stop-color="#ff9a00"/></linearGradient><linearGradient id="linear-gradient-37" x1="1469.37" y1="597.63" x2="1506.81" y2="772.22" xlink:href="#linear-gradient-36"/><linearGradient id="linear-gradient-38" x1="1116.31" y1="2449.72" x2="1153.75" y2="2624.3" gradientTransform="translate(-774.49 -836.59) rotate(-32.91)" xlink:href="#linear-gradient-36"/></defs><g id="Layer_1"><path class="cls-30" d="m245.03,509.89s-78.34-51.91,55.13-221.62c133.47-169.7,325.99-69.97,544.82-92.15,218.83-22.18,423.87-22.64,495.38,0,71.5,22.64,203.54,190.36,186.84,299.58s-337.85,177.52-434.9,153.32c-97.04-24.2-847.27-139.14-847.27-139.14Z"/><polygon class="cls-54" points="427.55 416.98 404.62 457.87 529.73 443.62 427.55 416.98"/><path class="cls-19" d="m1596.04,996.88c-293.52,73.65-1054.69,139.91-1267.85,70.78-155.44-50.42-270.13-205.24-167.69-356.26,86.38-127.35,211.47-219.4,381.79-252.22,31.65-6.11,64.89-10.17,99.72-12.03,95.31-5.1,278.97-22.68,450.15-17,120.74,4.01,235.29,19.62,308.26,59.35,176.41,96.06,255.78,166.55,290.6,225.67,8.68,14.74,25.99,36,42.4,60.53,11.75,17.56,23.03,36.77,30.34,56.46,23.47,63.21,3.97,121.66-167.71,164.74Z"/><path class="cls-54" d="m469.35,893.04s388.1,30.83,559.69-47.28c171.59-78.11,340.48-208.04,169.97-248.13-170.51-40.09-336.42,60.43-351.46,77.66-15.04,17.23-378.2,217.75-378.2,217.75Z"/><polygon class="cls-46" points="1352.77 113.31 1351.75 447.16 1347.82 610.4 1069.93 596.57 1073.65 444.75 1075.21 98.65 1075.24 92.83 1352.77 113.31"/><path class="cls-42" d="m1351.75,447.16l-.03,1.57-3.89,161.68-277.89-13.83.34-13.65,3.38-138.17c10.79-2.69,22.74-.84,35.63,8.27,56.69,40.04,69.73,76.48,104.73,22.82,34.99-53.66,62.84-75.74,110.7-49.52,10.36,5.68,19.34,12.87,27.04,20.84Z"/><polygon class="cls-1" points="1436.88 528.11 1347.82 610.4 1349.36 456.26 1352.77 113.31 1431.56 67.9 1436.88 528.11"/><polygon class="cls-44" points="1075.24 92.82 1180.99 39.84 1431.56 67.9 1352.77 113.31 1075.24 92.82"/><path class="cls-42" d="m1104.71,220.26v59.78c0,12.78,9.97,23.35,22.73,24.09l183.55,10.71c13.86.81,25.54-10.21,25.54-24.09v-53.34c0-12.46-9.48-22.87-21.89-24.03l-183.55-17.14c-14.15-1.32-26.37,9.81-26.37,24.03Z"/><ellipse class="cls-56" cx="1244.05" cy="68.08" rx="59.09" ry="21.66"/><path class="cls-34" d="m1141.05,267.98l-7.47-39.2-2.44,41.86c-.13,2.32-.75,4.02-1.85,5.12-1.1,1.1-2.51,1.6-4.22,1.5-1.65-.1-2.97-.75-3.95-1.95-.98-1.21-1.4-2.98-1.27-5.32l2.79-47.98c.15-2.65.95-4.39,2.38-5.24,1.43-.84,3.32-1.2,5.66-1.06l3.8.22c2.29.13,3.94.44,4.95.91,1.01.47,1.73,1.26,2.17,2.37.43,1.1.9,2.89,1.39,5.35l6.88,33.72,10.74-32.7c.77-2.39,1.44-4.11,2-5.15.56-1.05,1.37-1.75,2.43-2.1,1.06-.35,2.73-.46,5.02-.33l3.81.22c2.34.14,4.18.71,5.5,1.71,1.32,1,1.91,2.83,1.76,5.48l-2.79,47.98c-.13,2.32-.75,4.02-1.85,5.12-1.1,1.1-2.52,1.6-4.26,1.5-1.63-.09-2.93-.75-3.91-1.97-.98-1.22-1.4-2.99-1.27-5.3l2.44-41.86-11.97,38.06c-.78,2.47-1.41,4.28-1.87,5.43-.47,1.15-1.27,2.17-2.4,3.08-1.13.9-2.65,1.3-4.55,1.19-1.43-.08-2.63-.46-3.59-1.14-.96-.68-1.68-1.52-2.18-2.51-.5-1-.87-2.09-1.12-3.28-.25-1.19-.5-2.43-.76-3.72Z"/><path class="cls-11" d="m1191.47,273.62l2.78-47.77c.14-2.48.82-4.31,2.02-5.49,1.2-1.18,2.7-1.71,4.49-1.61,1.85.11,3.31.81,4.38,2.1,1.07,1.29,1.54,3.2,1.39,5.7l-2.78,47.77c-.15,2.51-.83,4.35-2.04,5.53-1.22,1.17-2.75,1.71-4.6,1.6-1.76-.1-3.18-.81-4.25-2.14-1.07-1.32-1.53-3.22-1.39-5.7Z"/><path class="cls-38" d="m1232.31,228.06l-2.57,44.13,24.9,1.45c1.99.12,3.48.69,4.49,1.71,1.01,1.03,1.47,2.27,1.38,3.73-.09,1.49-.68,2.67-1.78,3.53-1.1.86-2.66,1.24-4.67,1.12l-29.65-1.73c-2.67-.16-4.56-.86-5.67-2.11-1.1-1.25-1.58-3.2-1.42-5.85l2.72-46.69c.14-2.48.81-4.31,2-5.49,1.19-1.18,2.69-1.71,4.51-1.6,1.85.11,3.31.81,4.38,2.1,1.07,1.29,1.54,3.2,1.39,5.7Z"/><path class="cls-57" d="m1283.8,231.06l-1.24,21.26,25.58-23.74c1.23-1.15,2.27-1.98,3.11-2.52.85-.53,1.95-.76,3.3-.68,1.76.1,3.16.7,4.19,1.8,1.03,1.1,1.5,2.39,1.41,3.88-.1,1.79-1.13,3.52-3.08,5.17l-15.75,13.28,15.77,25.65c1.11,1.78,1.94,3.33,2.47,4.65.53,1.32.76,2.58.69,3.8-.08,1.35-.68,2.49-1.8,3.42-1.12.93-2.59,1.34-4.41,1.24-1.71-.1-3.08-.55-4.11-1.34-1.03-.79-1.89-1.82-2.56-3.07-.67-1.26-1.27-2.4-1.79-3.42l-13.22-23.18-10.61,9.05-.73,12.53c-.15,2.54-.84,4.38-2.07,5.54-1.23,1.16-2.75,1.69-4.57,1.58-1.05-.06-2.04-.4-2.97-1-.93-.61-1.63-1.4-2.1-2.36-.34-.79-.52-1.7-.55-2.73-.02-1.03.02-2.5.13-4.43l2.62-45.08c.14-2.48.8-4.31,1.96-5.49,1.16-1.18,2.68-1.71,4.55-1.6,1.85.11,3.31.81,4.38,2.1,1.07,1.29,1.54,3.2,1.39,5.7Z"/><path class="cls-42" d="m1180.99,479.99c-2.41-1.6-46.5-16.08-70.55-56.54-24.05-40.46,34.85-33.23,44.09,7.65,9.25,40.88,26.46,48.9,26.46,48.9Z"/><path class="cls-42" d="m1197.13,468.74c-1.14-1.5-25.25-19.73-31.52-49.75-6.27-30.01,28.49-13.11,25.55,14.03-2.94,27.14,5.97,35.72,5.97,35.72Z"/><polygon class="cls-42" points="1352.77 113.31 1075.21 98.65 1075.24 92.83 1352.77 113.31"/><path class="cls-13" d="m1285.5,21.66v36.36c0,4.22-3.29,8.15-8.96,11.48-1.45.85-3.06,1.66-4.81,2.43-3.86,1.69-8.42,3.16-13.51,4.36-1.55.37-3.16.71-4.81,1.01-4.78.9-9.94,1.58-15.36,1.97-1.58.12-3.18.21-4.81.27-2.24.1-4.51.14-6.82.14-3.41,0-6.76-.1-10.01-.31-1.63-.1-3.23-.23-4.81-.38-5.75-.54-11.16-1.4-16.09-2.51-1.66-.38-3.27-.78-4.81-1.21-4.34-1.21-8.21-2.63-11.49-4.23-1.79-.87-3.4-1.79-4.81-2.75-4.5-3.05-7.05-6.55-7.05-10.27V21.66h118.18Z"/><polygon class="cls-4" points="1347.82 610.4 1388.64 462.53 1436.87 528.11 1347.82 610.4"/><polygon class="cls-4" points="1352.77 113.31 1403.2 160.9 1431.56 67.9 1352.77 113.31"/><path class="cls-4" d="m1388.64,462.53c.74,8.21,14.57-301.63,14.57-301.63,0,0-20.98,230.46-14.57,301.63Z"/><path class="cls-12" d="m1179.19,21.4v49.64c-1.79-.87-3.4-1.79-4.81-2.75V21.4h4.81Z"/><path class="cls-12" d="m1195.49,25.68v50.81c-1.66-.38-3.27-.78-4.81-1.21V25.68h4.81Z"/><path class="cls-12" d="m1216.4,29.01v50.37c-1.63-.1-3.23-.23-4.81-.38V29.01h4.81Z"/><path class="cls-20" d="m1238.04,29.01v50.26c-1.58.12-3.18.21-4.81.27V29.01h4.81Z"/><path class="cls-20" d="m1258.21,29.01v47.27c-1.55.37-3.16.71-4.81,1.01V29.01h4.81Z"/><path class="cls-20" d="m1276.53,20.3v49.19c-1.45.85-3.06,1.66-4.81,2.43V20.3h4.81Z"/><path class="cls-2" d="m1285.5,21.66c0,1.36-.34,2.69-1,3.98-5.09,10.07-29.16,17.69-58.09,17.69-32.63,0-59.08-9.7-59.08-21.67,0-2.21.9-4.35,2.6-6.36,7.4-8.85,29.9-15.3,56.49-15.3,32.64,0,59.09,9.7,59.09,21.66Z"/><path class="cls-42" d="m1285.5,21.66c0,1.36-.34,2.69-1,3.98-7.43,8.85-29.91,15.28-56.48,15.28-32.64,0-59.09-9.7-59.09-21.67,0-1.35.34-2.68.99-3.96,7.4-8.85,29.9-15.3,56.49-15.3,32.64,0,59.09,9.7,59.09,21.66Z"/><path class="cls-13" d="m1260.47,21.02c0,.82-.21,1.61-.6,2.38-4.45,5.3-17.91,9.15-33.82,9.15-19.54,0-35.38-5.81-35.38-12.97,0-.81.2-1.6.59-2.37,4.43-5.3,17.9-9.16,33.82-9.16,19.54,0,35.38,5.81,35.38,12.97Z"/><path class="cls-40" d="m1349.36,456.26l-1.53,154.14-277.89-13.83.34-13.65c79.9,2.73,238.75-7.51,279.09-126.66Z"/><path class="cls-54" d="m153.7,713.59s52.39,27.25,139.14,10.11c86.74-17.14,29.5-57.93,29.5-57.93l-168.64,47.82Z"/><path class="cls-25" d="m977.41,386.55c-43.5-1.51-87.81-1.45-131.28-.43-14.01.33-27.94.75-41.72,1.27-10.8.39-21.5.83-32.08,1.33h-.01c-10.52.47-20.92,1-31.18,1.55l-10.03,21.49-34.35-14.52,2.11-4.53c-3.74.23-7.45.46-11.15.7h-.01c-22.71,1.45-44.39,2.96-64.72,4.41-8.4.6-16.58,1.19-24.48,1.76l19.76,8.36-15.77,33.79-34.36-14.53,12.3-26.33c-19.77,1.4-37.65,2.61-53.17,3.48-2.77.16-5.53.33-8.28.52-1.07.06-2.13.14-3.19.21-13.55.96-26.85,2.27-39.89,3.95-16.52,2.09-32.65,4.75-48.37,7.93l37.43,15.5,34.47,14.27,49.94,20.66,34.47,14.26,61.6,25.49,34.47,14.27,51.9,21.47,34.47,14.27,25.07,10.37,99.55-3.89h.01l21.01-.82,128.97-5.04-63.5-171.23Zm-178.81,13.28l34.36,14.53-15.78,33.79-34.35-14.52,15.77-33.81Zm-134.73,67.86l15.78-33.79,34.35,14.52-15.77,33.79-34.36-14.52Zm86.09,36.38l15.77-33.79,34.36,14.52h0s-15.78,33.79-15.78,33.79l-34.35-14.52Z"/><polygon class="cls-51" points="922.97 536.74 911.94 562.83 908.46 571.06 890.93 563.65 890.92 563.65 784.31 518.58 800.09 484.8 922.97 536.74"/><polygon class="cls-13" points="850.73 506.21 838.25 541.39 853.64 549.67 850.73 506.21"/><polygon class="cls-51" points="1012.64 490.3 998.12 524.63 817.18 448.15 832.96 414.35 1012.64 490.3"/><path class="cls-36" d="m1038.05,273.19l-.08,136.54-.08,138.84c0,13.67-41.89,24.75-93.59,24.75s-93.58-11.08-93.58-24.75l.03-47.03.12-228.35h187.17Z"/><path class="cls-43" d="m1025.03,286.21l-.02,23.66-.04,85.6-.03,48.12-.06,102.75c-2.39,1.83-9.38,5.49-24.13,8.68-15.77,3.41-35.8,5.28-56.44,5.28s-40.67-1.87-56.43-5.28c-14.75-3.18-21.74-6.84-24.13-8.68l.05-108.6.03-42.27v-20.85s.06-88.41.06-88.41h161.14Z"/><ellipse class="cls-21" cx="944.47" cy="273.19" rx="93.58" ry="24.75"/><path class="cls-43" d="m944.47,289.26c-22.29,0-43.66-2.14-60.16-6.01-16.13-3.79-22.68-8.14-24.42-10.06,1.74-1.92,8.28-6.27,24.42-10.06,16.5-3.88,37.86-6.01,60.16-6.01s43.66,2.14,60.16,6.01c16.13,3.79,22.68,8.14,24.42,10.06-1.74,1.92-8.28,6.27-24.42,10.06-16.5,3.88-37.86,6.01-60.16,6.01Z"/><path class="cls-36" d="m1025.01,309.87l-.04,85.6-.03,48.12c-36.97.43-109.81-3.25-161.14-5.85l.03-42.27v-20.85c10.46-7.61,25.36-14.31,46.42-16.76,58.88-6.84,107.58-48.95,114.77-47.99Z"/><path class="cls-2" d="m863.75,395.48s-2.1-4.67,9.92-12.29c12.02-7.62,83.26-24.57,133.65-1.03,0,0-45.95,8.14-52.55,8.14s-65.69,2.37-65.69,2.37l-25.33,2.81Z"/><path class="cls-17" d="m1037.97,409.73l-.08,138.84c0,13.67-41.89,24.75-93.59,24.75s-93.58-11.08-93.58-24.75l.03-47.03c31.43.62,99.56-3.22,137.2-44.44,23.82-26.08,39.8-39.97,50.02-47.37Z"/><path class="cls-2" d="m1024.97,395.47l-.03,49.56-.06,101.31c-2.39,1.83-9.38,5.49-24.13,8.68-15.77,3.41-35.8,5.28-56.44,5.28s-40.67-1.87-56.43-5.28c-14.75-3.18-21.74-6.84-24.13-8.68l.02-31.39.06-119.48h161.14Z"/><ellipse class="cls-42" cx="944.37" cy="395.48" rx="80.62" ry="21.32"/><path class="cls-58" d="m1024.94,445.03l-.06,101.31c-2.39,1.83-9.38,5.49-24.13,8.68-15.77,3.41-35.8,5.28-56.44,5.28s-40.67-1.87-56.43-5.28c-14.75-3.18-21.74-6.84-24.13-8.68l.02-31.39c12.97,1.65,26.97.61,39.36-6.47,35.56-20.31,92.45-80.26,119.37-65.02.83.47,1.65,1,2.45,1.57Z"/><path class="cls-2" d="m888.4,320.58c0,10.08-1.82,18.25-4.06,18.25s-4.06-8.17-4.06-18.25,1.82-18.25,4.06-18.25,4.06,8.17,4.06,18.25Z"/><path class="cls-2" d="m888.4,355.59c0,6.62-1.82,11.98-4.06,11.98s-4.06-5.36-4.06-11.98,1.82-11.98,4.06-11.98,4.06,5.36,4.06,11.98Z"/><ellipse class="cls-2" cx="944.47" cy="257.12" rx="9.12" ry="3.09"/><path class="cls-54" d="m262.47,942.15l234.54-86.35,50.51,27.29s-107.75,80.49-150.35,94.3c-42.6,13.82-153.92-12.06-134.69-35.24Z"/><path class="cls-18" d="m287.74,689.09c0,16.5-38.25,29.87-85.43,29.87s-85.43-13.37-85.43-29.87c0-8.5,10.15-16.16,26.43-21.6.02,0,.04,0,.05-.02,3.99-1.32,8.35-2.53,13.01-3.57,13.26-2.96,29.03-4.68,45.93-4.68,47.19,0,85.43,13.37,85.43,29.87Z"/><path class="cls-18" d="m404.62,491.25c-.14,1.14-.29,2.28-.45,3.4-.15,1.12-.3,2.24-.47,3.36,0,0,0,.02,0,.04-.11.78-.22,1.55-.34,2.32-.28,1.88-.57,3.74-.87,5.58-.19,1.12-.37,2.23-.57,3.35-.18,1.02-.35,2.02-.54,3.03-1.01,5.55-2.11,10.95-3.31,16.19-.18.8-.36,1.6-.56,2.39-.37,1.59-.75,3.16-1.14,4.72-.19.78-.39,1.55-.59,2.32-.64,2.48-1.29,4.92-1.97,7.32-.28,1.02-.57,2.03-.87,3.03-.89,3.06-1.82,6.06-2.77,8.99-.29.91-.58,1.82-.89,2.72-.2.62-.41,1.23-.62,1.83-.16.49-.33.97-.49,1.45-.92,2.66-1.86,5.26-2.83,7.82-.33.86-.64,1.7-.97,2.54-.74,1.9-1.48,3.75-2.24,5.59-.32.79-.65,1.57-.98,2.35-.1.22-.19.45-.28.67-.63,1.47-1.26,2.91-1.9,4.34-.23.52-.46,1.03-.69,1.54-.18.4-.35.79-.54,1.17-.71,1.54-1.41,3.06-2.14,4.54-.24.51-.49,1.01-.73,1.51-.39.79-.78,1.58-1.17,2.37-.27.54-.55,1.09-.82,1.62s-.55,1.08-.83,1.61c-.83,1.59-1.66,3.16-2.51,4.71-.56,1.02-1.12,2.05-1.7,3.06-.28.49-.57,1-.85,1.49-.86,1.49-1.72,2.96-2.59,4.4-1.15,1.93-2.31,3.81-3.49,5.63-.58.91-1.17,1.82-1.76,2.71-.29.45-.59.89-.88,1.33-.35.53-.7,1.05-1.06,1.57-.53.79-1.07,1.55-1.6,2.32-.29.43-.59.86-.89,1.27-.59.84-1.19,1.67-1.78,2.48-.29.41-.58.81-.89,1.22-.6.81-1.19,1.61-1.79,2.39-.3.4-.6.79-.89,1.17-.6.78-1.2,1.55-1.79,2.3-.29.38-.59.76-.9,1.13-.3.37-.59.74-.89,1.11-.9,1.1-1.79,2.18-2.68,3.24-1.49,1.78-2.98,3.48-4.47,5.13-.88.97-1.76,1.93-2.63,2.86-2.05,2.19-4.08,4.27-6.08,6.23-.57.57-1.15,1.12-1.71,1.66-1.7,1.63-3.38,3.19-5.03,4.65-.27.25-.55.49-.82.72-3.05,2.69-5.98,5.1-8.77,7.26-.59.47-1.17.91-1.75,1.34-1.38,1.04-2.72,2.02-4.02,2.94-.32.23-.64.46-.96.68-8.58,6-15.03,9.24-17.72,10.49-.3.13-.56.25-.76.34-.27.11-.46.19-.55.24-.02,0-.04,0-.04,0h0s-.02.02-.02.02H116.88c-7.62-3.84-14.77-8.23-21.44-13.06-29.49-21.31-50.11-51.2-64.43-80.74-3.39-6.99-6.42-13.95-9.13-20.78-13.23-33.28-18.9-63.28-20.92-76.35,0-.03,0-.04,0-.06C.27,493.71,0,491.25,0,491.25h404.62Z"/><path class="cls-59" d="m404.62,491.25c-.14,1.14-.29,2.28-.45,3.4-.15,1.12-.3,2.24-.47,3.36-.11.79-.23,1.57-.34,2.36-.28,1.88-.57,3.74-.87,5.58-.19,1.12-.37,2.23-.57,3.35-.18,1.02-.35,2.02-.54,3.03-1.01,5.55-2.11,10.95-3.31,16.19-.18.8-.36,1.6-.56,2.39-.36,1.59-.75,3.16-1.14,4.72-.19.78-.39,1.55-.59,2.32-.64,2.48-1.29,4.92-1.97,7.32-.28,1.02-.57,2.03-.87,3.03-.89,3.06-1.82,6.06-2.77,8.99-.29.91-.58,1.82-.89,2.72-.2.62-.41,1.23-.62,1.83-.16.49-.33.97-.49,1.45-.92,2.66-1.86,5.26-2.83,7.82-.33.86-.64,1.7-.97,2.54-.74,1.9-1.48,3.75-2.24,5.59-.32.79-.65,1.57-.98,2.35-.1.22-.19.45-.28.67-.63,1.47-1.26,2.91-1.9,4.34-.23.52-.46,1.03-.69,1.54-.18.4-.35.79-.54,1.17-.71,1.54-1.41,3.06-2.14,4.54-.24.51-.49,1.01-.73,1.51-.39.79-.78,1.58-1.17,2.37-.27.54-.55,1.09-.82,1.62s-.55,1.08-.83,1.61c-.82,1.6-1.66,3.16-2.51,4.71-.56,1.02-1.12,2.05-1.7,3.06-.28.49-.57,1-.85,1.49-.86,1.49-1.72,2.96-2.59,4.4-1.15,1.93-2.31,3.81-3.49,5.63-.58.91-1.17,1.82-1.76,2.71-.29.45-.59.89-.88,1.33-.35.53-.7,1.05-1.06,1.57-.53.79-1.07,1.55-1.6,2.32-.29.43-.59.86-.89,1.27-.59.84-1.19,1.67-1.78,2.48-.29.41-.58.81-.89,1.22-.59.81-1.18,1.61-1.79,2.39-.3.4-.6.79-.89,1.17-.59.78-1.19,1.54-1.79,2.3-.29.38-.59.76-.9,1.13-.3.37-.59.74-.89,1.11-.89,1.1-1.78,2.19-2.68,3.24-1.49,1.78-2.98,3.48-4.47,5.13-.88.97-1.76,1.93-2.63,2.86-2.05,2.19-4.08,4.27-6.08,6.23-.57.57-1.15,1.12-1.71,1.66-1.7,1.63-3.38,3.19-5.03,4.65-.27.25-.55.49-.82.72-3.05,2.69-5.98,5.1-8.77,7.26-.59.47-1.17.91-1.75,1.34-1.38,1.04-2.72,2.02-4.02,2.94-.32.23-.64.46-.96.68-8.58,6-15.03,9.24-17.72,10.49-.3.14-.56.26-.76.34-.27.11-.46.19-.55.24-.03,0-.04.02-.05.02,0,0-.02,0-.02,0,0,16.5-38.25,29.87-85.43,29.87s-85.43-13.37-85.43-29.87c-7.62-3.84-14.77-8.23-21.44-13.06,13.49-1.47,30.08-4.05,47.87-8.54.02,0,.04,0,.05-.02,4.27-1.07,8.62-2.26,13.01-3.57,34.94-10.4,72.67-28.46,100.21-59.8,5.23-5.94,10.09-12.37,14.49-19.32,5.59-8.82,10.44-18.48,14.37-29.04,1.7-4.55,3.22-9.26,4.56-14.16,2.55-9.36,4.43-19.36,5.54-30.04.76-7.34,1.83-14.09,3.19-20.3h105.89Z"/><ellipse class="cls-16" cx="202.31" cy="491.24" rx="202.31" ry="70.73"/><path class="cls-33" d="m391.37,491.24c0,3.89-2.17,8.66-7.23,13.82-7.42,7.57-21.05,15.97-43.14,23.69-36.84,12.88-86.1,19.98-138.69,19.98s-101.83-7.09-138.68-19.98c-18.7-6.54-31.34-13.56-39.28-20.14-7.83-6.5-11.1-12.59-11.1-17.36,0-9.62,13.24-24.52,50.38-37.52,5.91-2.07,12.13-3.98,18.65-5.74,34.08-9.23,75.88-14.23,120.03-14.23,32.04,0,62.85,2.63,90.36,7.6h0c17.64,3.19,33.92,7.33,48.32,12.36,37.14,12.99,50.37,27.9,50.37,37.52Z"/><path class="cls-51" d="m384.13,505.07c-7.42,7.57-21.06,15.97-43.15,23.69-36.84,12.88-86.09,19.97-138.68,19.97s-99.25-6.72-135.76-18.98c-.98-.33-1.96-.65-2.92-.99-18.7-6.54-31.34-13.56-39.28-20.15,3.82-8.01,10.63-18.38,22.52-27.26,16.3-12.15,25.71-23.15,35.41-33.35,4.15-4.37,8.35-8.59,13.16-12.7,10.03-8.55,23.88-21.89,37.64-31.07,8.29-5.52,16.53-9.53,23.91-10.09,19.65-1.48,65.8-.82,80.98,2.98,13.25,3.32,37.18,33.01,49.98,41.87,1.82,1.25,3.42,2.1,4.73,2.38.04.01.07.01.12.02.32.06.66.14,1.03.23,11.72,2.85,48.46,19.47,55.48,27,7.24,7.77,34.7,19.33,34.84,36.45Z"/><path class="cls-13" d="m384.13,505.07c-7.42,7.57-21.05,15.97-43.14,23.69-36.84,12.88-86.1,19.98-138.69,19.98s-99.26-6.72-135.76-18.98c52.01-.56,136.11-5.16,157.13-28.28,31.02-34.12,63.76-38.18,64.06-60.96,0-.53.07-1.03.2-1.52,1.82,1.25,3.42,2.09,4.72,2.38h0s.07.02.11.03c10.41,2.02,49.28,19.46,56.51,27.23,7.24,7.77,34.71,19.32,34.84,36.45Z"/><path class="cls-2" d="m138.36,415.61c15.88-7.8,64.38-9.92,68.63,0,4.25,9.92-72.17,21.98-72.17,21.98,0,0-14.82,29.61-39.69,42.99-24.87,13.38-40.08,5.21-40.08,5.21,0,0,27.27-25.62,40.08-37.27,12.81-11.65,25.56-24.23,43.23-32.91Z"/><ellipse class="cls-13" cx="237.68" cy="483.63" rx="12.34" ry="4.65"/><path class="cls-13" d="m247.36,448.76c.6.92-.88,2.96-3.31,4.56-2.43,1.6-4.89,2.16-5.5,1.24s.88-2.96,3.31-4.56c2.43-1.6,4.89-2.16,5.5-1.24Z"/><path class="cls-13" d="m158.79,448.59c.6.92-.14,2.48-1.67,3.48-1.53,1.01-3.26,1.08-3.86.16-.6-.92.14-2.48,1.67-3.48,1.53-1.01,3.26-1.08,3.86-.16Z"/><path class="cls-33" d="m116.88,689.09s74.67,34.87,170.86,0c0,0,52.25-32.8,40.88-53.99-11.37-21.2-54.28,46.01-93.05,51.18-38.77,5.17-64.71,12.35-118.69,2.81Z"/><path class="cls-13" d="m293.82,441.62c-.54,4.65-1.43,8.94-1.61,10.04-.41,2.45-21.36,17.06-17.66,9.89,3.72-7.17,1.42-24.88-6.79-30.43-8.22-5.55-29.79-26.29-37.39-28.04-7.6-1.75-65.74-7.09-71.29-5.85-3,.66-15.32,4.04-26.01,6.99,8.29-5.52,16.53-9.53,23.91-10.09,19.65-1.48,65.8-.82,80.98,2.98,13.25,3.32,37.18,33.01,49.98,41.87,1.82,1.25,3.42,2.1,4.73,2.38.04.01.07.01.12.02.32.06.66.14,1.03.23Z"/><path class="cls-25" d="m395.78,537.95c-.64,2.48-1.29,4.92-1.97,7.32-.28,1.02-.57,2.03-.87,3.03-.89,3.06-1.82,6.06-2.77,8.99-.29.91-.58,1.82-.89,2.72-.2.62-.41,1.23-.62,1.83-.16.49-.33.97-.49,1.45-.92,2.66-1.86,5.26-2.83,7.82-.33.86-.64,1.7-.97,2.54-.74,1.9-1.48,3.75-2.24,5.59-.32.79-.65,1.57-.98,2.35-.1.22-.19.45-.28.67-.63,1.47-1.26,2.91-1.9,4.34-.23.52-.46,1.03-.69,1.54-.18.4-.35.79-.54,1.17-.71,1.54-1.41,3.06-2.14,4.54-.24.51-.49,1.01-.73,1.51-.39.79-.78,1.58-1.17,2.37-.27.54-.55,1.09-.82,1.62-11.95,9.97-25.77,17.22-42.38,19.29-17.25,2.14-33.94-3.44-50.21-8.38-7.57-2.31-15.59-4.79-23.69-6.15-6.87-1.16-13.8-1.51-20.58-.27-15.03,2.74-26.01,14.03-38.74,21.56-13.29,7.85-28.44,12.13-43.79,13.07-15.59.95-30.97-2.25-45.19-8.54-14.47-6.4-27.07-16.08-40.76-23.89-6.41-3.66-13.01-6.87-20.14-8.89-3.51-.99-7-1.73-10.65-1.9-2.2-.11-4.1-.1-5.73.04-3.39-6.99-6.42-13.95-9.13-20.78,16.39-3.96,33.65.9,48.5,8.08,14.26,6.88,26.82,16.68,40.74,24.18,12.63,6.82,25.95,10.24,40.19,9.71,13.7-.49,26.99-4.95,38.63-12.53,13.11-8.55,25.06-18.72,40.97-21.55,13.5-2.4,27-.78,40.17,2.38,3.49.83,6.96,1.77,10.4,2.78,15.21,4.44,31.4,11.47,47.57,9.17,29.5-4.21,48.21-32.46,63.48-55.45.88-1.33,1.99-2.46,3.24-3.34Z"/><path class="cls-51" d="m817.82,642.3c-34.58,8.76-414.42,120.56-414.42,120.56,0,0-27.35-1.87-57.3-7.84-34.82-6.96-73.16-19.45-76.06-40.99-1.78-13.28-.81-28.84,7.12-45.1,16-32.8,60.24-68.54,167.09-94.65,159.85-39.06,188.14-52.53,243.36-52.53,37.37,0,97.17,11.8,142.57,26.4,7.3,2.35,14.24,4.77,20.63,7.23,12.63,4.83,23.21,9.82,30.59,14.63,34.41,22.52-29.01,63.53-63.59,72.28Z"/><path class="cls-13" d="m351.5,751.92c-1.09,1.12-2.93,2.15-5.4,3.1-34.82-6.96-73.16-19.45-76.06-40.99-1.78-13.28-.81-28.84,7.12-45.1-2.02,22.24,5.34,42.23,40.93,37.32,74.54-10.29,44.38,34.29,33.41,45.67Z"/><path class="cls-2" d="m850.82,555.38l-466.94,131.58s10.98-8.05,49.6-21.52c34.18-11.92,329.32-97.7,396.71-117.28,7.3,2.35,14.24,4.77,20.63,7.23Z"/><path class="cls-8" d="m1225.14,617.13c-6.78,5.94-14.67,9.91-23.04,12,0,0-.02,0-.03.01l-6.17,1.18-200.7,38.46-5.53,1.06-.09.03c-3.59.48-7.26.58-10.91.3-14.09-1.12-28.24-7.94-38.78-20-20.12-23.03-19.45-56.57,1.51-74.9,5.67-4.96,12.25-8.29,19.22-10.06l193.24-56.72s.03-.01.06-.03c23.83-9.73,53.58-2.55,73,19.67,23.92,27.37,23.12,67.21-1.79,88.97Z"/><path class="cls-5" d="m1202.07,629.15c-2.03.5-4.09.9-6.17,1.18l6.17-1.18Z"/><path class="cls-29" d="m1129.37,631.54c-2.82,19.13-11.31,37.11-25.56,51.36-9.14,9.14-19.82,15.91-31.36,20.33-3.22,1.24-6.5,2.29-9.83,3.16l-.11.03-430.15,136.44c-.06.03-.12.05-.18.06l-53.22,16.89c-.14.05-.2.06-.2.06l-90.8,28.79-7.47-20.62-10.72-29.61-58.59-161.81,564.75-162.06c22.63-11.21,49.44-12.7,74.65-4.68,4.4,1.4,8.74,3.08,13.01,5.05,12,5.52,23.36,13.33,33.4,23.36,1.01,1.01,2.01,2.04,2.96,3.08,24.02,25.79,33.99,59.44,29.42,90.16Z"/><path class="cls-20" d="m1129.37,631.54l-648.87,236.51-8.41,3.07-2.32-32.68-8.45-119.67,638.63-177.38c24.02,25.79,33.99,59.44,29.42,90.16Z"/><ellipse class="cls-26" cx="463.56" cy="778.75" rx="104.61" ry="114.98" transform="translate(-414.88 555.88) rotate(-45)"/><path class="cls-3" d="m529.11,739.96c1.35.9,407.68-109.1,407.68-109.1l-418.46,126.17,10.78-17.06Z"/><path class="cls-23" d="m530.97,859.53c-1.72,2.03-3.51,3.97-5.42,5.88-15.56,15.57-35.28,24.73-56.21,27.63-34.04,4.69-71.27-7.15-99.07-34.95-44.9-44.9-48.18-114.43-7.32-155.28,40.85-40.85,110.38-37.57,155.26,7.33,42.82,42.82,47.79,108.01,12.75,149.39Z"/><path class="cls-20" d="m428.92,732.19l-5.45,1.44c1.78-.6,3.6-1.09,5.45-1.44Z"/><path class="cls-6" d="m1129.37,631.54c-2.82,19.13-11.31,37.11-25.56,51.36-11.69,11.69-25.91,19.5-41.19,23.49l-.11.03-430.15,136.44c145.47-48.32,530.25-191.74,431.22-327.92,12,5.52,23.36,13.33,33.4,23.36,1.01,1.01,2.01,2.04,2.96,3.08,24.02,25.79,33.99,59.44,29.42,90.16Z"/><path class="cls-29" d="m530.97,859.53c-1.72,2.03-3.51,3.97-5.42,5.88-15.56,15.57-35.28,24.73-56.21,27.63-39-28.26-82.12-89.31-82.12-89.31l92.69-55.26s55.46,47.63,51.05,111.07Z"/><path class="cls-20" d="m483.44,822.7c-5.32,5.32-11.66,9.1-18.5,11.32l-195.48,71.98-4.8-9.56-44.95-109.93,203.77-53.47,5.45-1.44.09-.03c3.56-.72,7.19-1.06,10.88-1.03,14.13.17,28.7,6.01,40.02,17.33,21.63,21.63,23.21,55.13,3.53,74.83Z"/><path class="cls-55" d="m483.44,822.7c-5.32,5.32-11.66,9.1-18.5,11.32l-195.48,71.98-4.8-9.56,21.4-4s267-69.05,153.83-161.9c14.13.17,28.7,6.01,40.02,17.33,21.63,21.63,23.21,55.13,3.53,74.83Z"/><path class="cls-35" d="m290.62,893.12c-11.24,11.24-26.25,16.63-41.67,16.37-16.7-.28-33.85-7.2-47.22-20.57-25.71-25.71-27.59-65.5-4.2-88.89,8.6-8.61,19.43-13.8,30.97-15.63,19.8-3.14,41.67,3.58,57.92,19.83,25.71,25.71,27.58,65.5,4.2,88.89Z"/><path class="cls-23" d="m279.99,893.85c-8.63,8.63-19.48,13.81-31.04,15.64-16.7-.28-33.85-7.2-47.22-20.57-25.71-25.71-27.59-65.5-4.2-88.89,8.6-8.61,19.43-13.8,30.97-15.63,16.72.26,33.91,7.19,47.29,20.56,25.71,25.71,27.59,65.51,4.2,88.89Z"/><polygon class="cls-20" points="277.57 825.62 299.28 810.92 308.1 818.11 277.57 825.62"/><path class="cls-22" d="m1129.37,631.54c-2.82,19.13-11.31,37.11-25.56,51.36-9.14,9.14-19.82,15.91-31.36,20.33,26.86-26.6,44.99-57.99,42.14-93.47-4.36-54.23-33.52-83.77-64.02-99.87,4.4,1.4,8.74,3.08,13.01,5.05,12,5.52,23.36,13.33,33.4,23.36,1.01,1.01,2.01,2.04,2.96,3.08,24.02,25.79,33.99,59.44,29.42,90.16Z"/><path class="cls-22" d="m712.02,807.82c3.11-.98,34.86-74.15,95.02-85.37,60.16-11.22,92.94-24.69,148.62-49.84s112.22,11.72,112.22,11.72l-186.47,51.49-169.39,71.99Z"/><path class="cls-51" d="m1104.41,755.69c0,.44-.02.89-.03,1.33-.03.69-.05,1.4-.06,2.07-1,23.33-9.16,46.53-31.48,59.17-37.72,21.37-312.5,59.09-359.64,60.43-47.14,1.35-181.98-3.74-181.98-3.74l50.42-16.45,99.61-32.46s14.68-7.42,30.77-18.22c13.81-9.27,28.67-20.99,36.2-32.63,22.6-34.93,56.07-69.31,123.92-71.96,67.85-2.65,60.89-23.64,106.52-33.04,24.68-5.09,58.52.14,84.13,11.7,17.9,8.07,31.75,19.25,35.64,32.14,3.57,11.89,6.2,26.69,5.98,41.66Z"/><path class="cls-13" d="m1104.41,755.7c0,.45-.01.89-.02,1.34-.04.68-.05,1.39-.06,2.07-.63,14.6-4.06,29.16-12.03,41.1-3.16,4.74-7.02,9.07-11.71,12.82-2.36,1.89-4.94,3.66-7.75,5.24-25.95,14.7-164.06,37.14-263.1,50.15-44.93,5.9-81.82,9.86-96.54,10.29-28.59.82-89.42-.73-132.89-2.08-28.21-.88-49.09-1.67-49.09-1.67l50.42-16.45c46.55,1.77,166.94,2.72,189.17-32.89,27.7-44.35,83.36-76.76,140.85-91.99,56.97-15.09,192.75-29.35,192.75,22.07Z"/><path class="cls-2" d="m1062.8,681.89c-19.3-.72-49.87-2.19-71.52-.29-34.12,2.99-70.64,20.34-115.54,24.65-44.9,4.31-85,37-112.54,72.5-10.43,13.44-30.4,22.72-51.18,29.07,13.81-9.27,28.67-20.99,36.2-32.63,22.6-34.93,56.07-69.31,123.92-71.96,67.85-2.65,60.89-23.64,106.52-33.04,24.68-5.09,58.52.14,84.13,11.7Z"/><path class="cls-12" d="m866.76,810.92s4.85-21.57,24.57-19.18c19.73,2.39-29.08,29.12-24.57,19.18Z"/><path class="cls-13" d="m343.97,668.39s4.85-21.57,24.57-19.18c19.73,2.39-29.08,29.12-24.57,19.18Z"/><path class="cls-12" d="m1080.59,813.02c-2.36,1.9-4.94,3.67-7.75,5.25-25.96,14.7-164.07,37.14-263.11,50.15-1.29-11.08,1.56-36.48,32.77-32.37,34.13,4.49,78.13-9.76,89.8-28.23,11.67-18.47,65.04-56.3,118.28-34.24,21.77,9.02,29.32,24.41,30.01,39.44Z"/><path class="cls-12" d="m1050.58,757.02s-14.11-2.69-10.82-8.98c3.29-6.29,18.64,8.38,10.82,8.98Z"/><path class="cls-13" d="m522.9,617.1s-14.11-2.69-10.82-8.98c3.29-6.29,18.64,8.38,10.82,8.98Z"/><path class="cls-12" d="m972.12,766.87s3.89-10.15,12.87-9.85c8.98.3,7.78,11.26,1.2,16.56-6.59,5.29-17.96-.76-14.07-6.71Z"/><path class="cls-12" d="m994.27,746.48s-.33.46-.74,1.11c-1.12,1.82-2.79,5.13.74,4.16,4.79-1.31,6.59-7.73,0-5.27Z"/><path class="cls-13" d="m534.18,579.94s-.7.96-1.54,2.32c-2.35,3.8-5.84,10.74,1.54,8.71,10.02-2.75,13.78-16.18,0-11.03Z"/><path class="cls-12" d="m777.86,849.81s14.37-7.78,13.47-1.8c-.9,5.99-17.06,5.69-13.47,1.8Z"/><path class="cls-20" d="m1092.29,800.21c-3.16,4.74-7.02,9.07-11.71,12.82-2.36,1.89-4.94,3.66-7.75,5.24-25.95,14.7-164.06,37.14-263.1,50.15-44.93,5.9-81.82,9.86-96.54,10.29-28.59.82-89.42-.73-132.89-2.08,0,0,178.32,2.69,244.25-16.88,65.93-19.56,123.09-19.56,156.82-24.63,30.74-4.63,80.43-7.56,110.92-34.9Z"/><path class="cls-54" d="m1267.13,920.98s79.99,5.11,118.52-26.94c38.53-32.04,16.59-63.2-64.89-58.1-81.48,5.1-53.63,85.04-53.63,85.04Z"/><path class="cls-25" d="m1318.8,904.63c48.35-27.21,55.29-75.86,33.39-114.78-21.9-38.92-67.09-58.23-115.44-31.01-3.53,1.98-6.98,4.16-10.32,6.51-42.58,29.82-69.64,86.97-49.34,123.05,3.57,6.34,8.44,11.76,14.32,16.28,30.23,23.27,86.9,22.74,127.39-.04Z"/><path class="cls-10" d="m1318.8,904.63c48.35-27.21,55.29-75.86,33.39-114.78-21.9-38.92-67.09-58.23-115.44-31.01-3.53,1.98-6.98,4.16-10.32,6.51,27.73,7.01,62.4,23.89,62.77,64.45.46,50.47-59.87,70.67-97.78,74.88,30.23,23.27,86.9,22.74,127.39-.04Z"/><path class="cls-31" d="m1209.28,839.78c5.26-11.27,5.84-22.13,1.29-24.26s-12.5,5.3-17.76,16.57c-5.26,11.27-5.84,22.13-1.29,24.26,4.55,2.12,12.5-5.3,17.76-16.57Z"/><path class="cls-41" d="m1232.18,909.69s29.69,2.79,60.19-7.63c30.5-10.42,61-26.83,57.81-65.15-3.19-38.32-4.3-5.83-12.06,9.79-7.76,15.61-30.94,53.03-105.94,62.99Z"/><path class="cls-53" d="m1312.36,792.02s24.68,46.85-8.53,76.78c-33.2,29.93,6.49,20.53,22.34,3.73s25.96-47.79-2.98-83.24c0,0-22.59-22.15-10.84,2.73Z"/><ellipse class="cls-42" cx="1203.22" cy="816.33" rx="11.94" ry="4.81" transform="translate(-186.26 1244.66) rotate(-51.29)"/><path class="cls-51" d="m527.27,404.36c15.53-.87,33.4-2.08,53.17-3.48l-12.3,26.33-49.76-21.02-2.58-1.09c1.06-.08,2.12-.16,3.19-.21,2.75-.19,5.51-.36,8.28-.52Z"/><polygon class="cls-51" points="618.27 407.94 679.65 433.89 663.87 467.68 602.5 441.74 618.27 407.94"/><polygon class="cls-51" points="714 448.4 765.73 470.27 749.96 504.07 698.23 482.2 714 448.4"/><path class="cls-51" d="m687.71,393.42c3.69-.24,7.41-.47,11.15-.7l-2.11,4.53-9.04-3.83Z"/><path class="cls-51" d="m798.6,399.82l-15.77,33.81-51.73-21.87,10.03-21.49c10.26-.55,20.66-1.08,31.18-1.55h.01l26.27,11.1Z"/><polygon class="cls-13" points="714 448.4 698.23 482.2 663.87 467.68 679.65 433.89 714 448.4"/><polygon class="cls-51" points="663.87 467.68 698.23 482.2 679.93 521.42 645.46 507.15 663.87 467.68"/><path class="cls-13" d="m741.13,390.28l-10.03,21.49-34.35-14.52,2.11-4.53c13.77-.86,27.88-1.68,42.27-2.44Z"/><polygon class="cls-51" points="731.1 411.76 714 448.4 679.65 433.89 696.76 397.25 731.1 411.76"/><polygon class="cls-13" points="800.09 484.79 800.09 484.8 784.31 518.58 749.96 504.07 765.73 470.27 800.09 484.79"/><polygon class="cls-51" points="749.96 504.07 784.31 518.58 766.3 557.16 731.83 542.9 749.96 504.07"/><polygon class="cls-13" points="832.96 414.35 817.18 448.15 782.83 433.63 798.6 399.82 832.96 414.35"/><polygon class="cls-51" points="782.83 433.63 817.18 448.15 800.09 484.79 765.73 470.27 782.83 433.63"/><path class="cls-51" d="m846.13,386.12l-13.18,28.23-34.36-14.53,5.81-12.43c13.78-.52,27.71-.95,41.72-1.27Z"/><path class="cls-13" d="m618.27,407.94l-15.77,33.79-34.36-14.53,12.3-26.33c5.86-.42,11.88-.86,18.06-1.3l19.76,8.36Z"/><polygon class="cls-51" points="568.14 427.21 602.5 441.74 583.86 481.66 549.39 467.4 568.14 427.21"/><path class="cls-51" d="m622.98,397.83l-4.72,10.11-19.76-8.36c7.91-.56,16.08-1.16,24.48-1.76Z"/><path class="cls-51" d="m518.99,404.88l-.61,1.31-18.93,40.55-34.47-14.27,10.93-23.42c13.04-1.68,26.34-3,39.89-3.95,1.06-.08,2.12-.16,3.19-.21Z"/><path class="cls-12" d="m891.33,926.64c0,2.96-15.44,5.36-34.48,5.36s-34.48-2.4-34.48-5.36,15.44-5.36,34.48-5.36,34.48,2.4,34.48,5.36Z"/><ellipse class="cls-12" cx="898.51" cy="908.28" rx="18.08" ry="3.08"/><path class="cls-12" d="m1106.09,896.12c0,1.7-8.09,3.08-18.08,3.08s-18.08-1.38-18.08-3.08,8.09-3.08,18.08-3.08,18.08,1.38,18.08,3.08Z"/><path class="cls-54" d="m1649.01,817.47c-53.56,16.02-130.26,1.89-130.26,1.89l99.92-58.35c11.75,17.56,23.03,36.77,30.34,56.46Z"/><path class="cls-39" d="m1622.54,659.91c-.47-.12-.94-.25-1.41-.42-7.97-2.78-12.18-11.49-9.4-19.46l42-120.5c4.25-12.18,3.34-25.22-2.55-36.7-5.89-11.48-15.95-19.82-28.32-23.48l-74.78-22.12c-8.09-2.39-12.71-10.9-10.32-18.99,2.39-8.09,10.91-12.7,18.99-10.32l74.78,22.12c20.47,6.05,37.1,19.85,46.84,38.84,9.74,18.99,11.24,40.55,4.21,60.71l-42,120.5c-2.61,7.5-10.49,11.67-18.05,9.82Z"/><ellipse class="cls-12" cx="1518.75" cy="773.92" rx="116.59" ry="45.44"/><path class="cls-32" d="m1700.94,655.33c0,78.87-81.11,142.79-181.16,142.79s-181.15-63.93-181.15-142.79c0-53.97,37.99-100.96,94.05-125.22,23.38-10.12,38.73-32.9,38.73-58.38v-78.74h100.94v80.59c0,25.08,14.9,47.58,37.74,57.95,54.3,24.65,90.85,70.87,90.85,123.8Z"/><path class="cls-42" d="m1686.25,640.69c-3.57,9.3-131.65,22.19-221.4,20.76-89.76-1.43-113.46-17.17-113.46-17.17,0,0,.72-16.47,6.44-32.92,5.72-16.45,31.49-45.08,60.1-58.67,28.63-13.59,58.67-36.49,61.92-57.95,1.93-12.8,1.56-43.8.94-66.74-.16-5.96-.33-11.38-.49-15.79-.26-7.09-.45-11.59-.45-11.59l48.97,12.68,32.67,8.46s-.57,2.22-.99,8.45c-.59,8.72-.84,25.28,1.25,54.52,3.58,50.09,45.79,58.67,45.79,58.67,68.7,38.64,82.29,88.01,78.71,97.31Z"/><path class="cls-60" d="m1561.5,421.74s-.57,2.22-.99,8.45c-44.86,10.89-71.25,1.7-79.71-2.2-.16-5.96-.33-11.38-.49-15.79,3.2.09,26.81.61,48.51,1.09l32.67,8.46Z"/><path class="cls-12" d="m1593.12,398.66c0,15.34-31.89,27.76-71.24,27.76-19.73,0-37.57-3.12-50.47-8.18,0,0-.11-.05-.33-.13-.11-.05-.24-.1-.4-.16-.1-.04-.22-.09-.35-.13-3.9-1.41-17.87-5.56-33.37.43-18.29,7.08-4.89-24.86,30.55-37.5.02-.01.06-.02.09-.04,13.05-6,32.54-9.8,54.3-9.8,39.35,0,71.24,12.43,71.24,27.76Z"/><path class="cls-2" d="m1393.6,614.89s56.15-29.29,101.78-32.87,57.45-3.58,102.7,4.29c45.25,7.87,88.9,30.02,88.18,54.38-.72,24.36-137.38-8.59-137.38-8.59l-155.28-17.21Z"/><path class="cls-47" d="m1578.92,299.16l-7.32,91.11c0,10.7-22.26,19.37-49.71,19.37s-49.7-8.68-49.7-19.37l-.54-6.63-6.8-84.49h114.07Z"/><path class="cls-7" d="m1353.71,635.71c1.73-2.26,10.32-22.69,88.07-33.19,77.75-10.49,131.18-9,162.18-2.11,31.01,6.88,82.42,23.2,82.28,40.28l-209.65-13.83-122.9,8.86Z"/><path class="cls-50" d="m1686.36,651.66c-2.9,137.02-164.48,135-164.48,135-144.8-11.47-167.02-95.87-170.13-129.04-.78-8.26-.37-13.35-.37-13.35,0,0,148.83,17.88,230.4,12.16,81.57-5.72,104.46-15.74,104.46-15.74.15,3.75.18,7.42.11,10.98Z"/><path class="cls-52" d="m1686.36,651.66c-5.76,8.69-16.2,18.54-35.17,25.71-42.22,15.93-111.62,10.55-140.24,0-28.62-10.55-84.43-1.63-118.07-.05-17.99.84-32-9.71-41.13-19.7-.78-8.26-.37-13.35-.37-13.35,0,0,148.83,17.88,230.4,12.16,81.57-5.72,104.46-15.74,104.46-15.74.15,3.75.18,7.42.11,10.98Z"/><path class="cls-45" d="m1475.89,670.28s-92.85-1.69-108.67-13.85l-15.83-12.16s-4.5-15.74,36.75-27.91,164.04-21.47,207.83-12.16c43.78,9.3,90.3,22.21,90.29,36.49,0,14.28-10.18,27.19-60.9,34.34-50.72,7.16-149.46-4.75-149.46-4.75Z"/><path class="cls-20" d="m1440.65,404.39s20.54-9.59,45.42-.68c24.88,8.91-8.04-16.31-8.04-16.31,0,0-22.18-1.79-37.39,16.99Z"/><path class="cls-28" d="m1430.81,644.5s-2.12.49-5.48,1.12c-10.75,2-34.23,5.42-42.22-1.12-10.49-8.59,6.68-23.85,55.81-29.1,49.13-5.25,82.05-7.16,86.82,0,4.77,7.16-5.25,24.33-32.44,17.17-27.19-7.16-51.54,9.87-62.49,11.93Z"/><path class="cls-27" d="m1578.92,299.16l-7.32,91.11c0,10.7-22.26,19.37-49.71,19.37s-49.7-8.68-49.7-19.37l-.54-6.63c17.03,4.07,60.85,9.93,70.79-34.42,6.75-30.07,9.82-43.8,11.22-50.07h25.27Z"/><ellipse class="cls-25" cx="1521.89" cy="299.17" rx="57.03" ry="22.23"/><path class="cls-28" d="m1455.86,651.06s3.94-11.81,25.76-8.23c21.82,3.58,76.92,9.34,92.3,3.78,15.38-5.57,41.5,13.6,7.51,17.43-33.99,3.84-145.25.62-125.57-12.98Z"/><path class="cls-15" d="m1539.57,773.77s3.9-.72,10.28-2.23c23.46-5.55,80.41-21.77,99.91-52.15,24.8-38.64-6.68-27.67-22.9-21.94-16.22,5.72-34.34,46.75-69.17,52.47-34.82,5.72-27.85,25.95-18.13,23.85Z"/><path class="cls-48" d="m1464.85,741.93s-34.03-4.4-45.96-28.26c-11.93-23.85-37.21-21.95-35.3-11.93,1.91,10.02,24.8,52.47,77.28,56.29,52.47,3.82,19.77-11.97,3.98-16.1Z"/><ellipse class="cls-2" cx="1499.51" cy="466.06" rx="6.68" ry="31.24"/><path class="cls-2" d="m1487.33,531.6c-6.38,7.14-13.79,10.93-16.54,8.47s.2-10.24,6.58-17.38c6.38-7.14,13.79-10.93,16.54-8.47s-.2,10.24-6.58,17.38Z"/><ellipse class="cls-2" cx="1651.73" cy="702.9" rx="17.34" ry="6.68" transform="translate(217.13 1781.89) rotate(-60)"/><path class="cls-2" d="m1382.88,620.85c-4.49,8.46-10.77,13.92-14.03,12.19s-2.26-9.99,2.23-18.45,10.77-13.92,14.03-12.19c3.26,1.73,2.26,9.99-2.23,18.45Z"/><ellipse class="cls-37" cx="1501.91" cy="296.59" rx="6.54" ry="2.57"/><path class="cls-14" d="m1566.93,298.72c-.46,1.34-3.61,1.48-7.02.31-3.41-1.17-5.81-3.22-5.34-4.56.46-1.34,3.61-1.48,7.02-.31s5.81,3.22,5.34,4.56Z"/><path class="cls-2" d="m1641.15,444.28c-.56,1.9-8.39,1.26-17.48-1.42-9.1-2.68-16.02-6.39-15.46-8.28s8.39-1.26,17.48,1.42,16.02,6.39,15.46,8.28Z"/><path class="cls-9" d="m1436.49,685.41s51.21-9.3,67.31,0c16.1,9.3,8.91,25.4-8.42,19.32-17.34-6.08-33.79,6.37-51.68-1.83-17.89-8.19-12.54-16.62-7.21-17.49Z"/><path class="cls-28" d="m1574.5,619.67c-.4,2.74-6.51,4.12-13.64,3.08-7.14-1.04-12.6-4.1-12.2-6.83s6.51-4.12,13.64-3.08c7.14,1.04,12.6,4.1,12.2,6.83Z"/><path class="cls-24" d="m1504.14,722.7c-.32,2.19-4.25,3.44-8.78,2.78-4.53-.66-7.94-2.97-7.62-5.16.32-2.19,4.25-3.44,8.78-2.78,4.53.66,7.94,2.97,7.62,5.16Z"/><path class="cls-49" d="m1590.97,699.44c.92,2.01-1.7,5.2-5.86,7.1-4.16,1.91-8.28,1.82-9.2-.19-.92-2.01,1.7-5.2,5.85-7.1,4.16-1.91,8.28-1.82,9.2.19Z"/></g></svg>