<?xml version="1.0" encoding="UTF-8"?><svg id="Capa_2" xmlns="http://www.w3.org/2000/svg" xmlns:xlink="http://www.w3.org/1999/xlink" viewBox="0 0 2009.48 1151.85"><defs><style>.cls-1{fill:url(#linear-gradient-2);}.cls-2{fill:url(#linear-gradient-51);}.cls-3{fill:#fff;}.cls-4{fill:url(#linear-gradient-17);}.cls-5{fill:#ae451d;}.cls-6{fill:url(#linear-gradient-43);}.cls-7{fill:#f4bb90;}.cls-8{fill:url(#linear-gradient-15);}.cls-9{fill:url(#linear-gradient-58);}.cls-10{fill:#a09397;}.cls-11{fill:url(#linear-gradient-18);}.cls-12{fill:url(#linear-gradient-56);}.cls-13{fill:url(#linear-gradient-40);}.cls-14{fill:url(#linear-gradient-52);}.cls-15{fill:url(#linear-gradient-28);}.cls-16{fill:url(#linear-gradient-14);}.cls-17{fill:url(#linear-gradient-36);}.cls-18{fill:url(#linear-gradient-20);}.cls-19{fill:url(#linear-gradient-6);}.cls-20{fill:url(#linear-gradient-53);}.cls-21{fill:#f9c9a1;}.cls-22{fill:#ffd9b4;}.cls-23{fill:url(#linear-gradient-60);}.cls-24{fill:#ba653f;}.cls-25{fill:#8d7f82;}.cls-26{fill:url(#linear-gradient-35);}.cls-27{fill:url(#linear-gradient-48);}.cls-28{fill:#721a03;}.cls-29{fill:url(#linear-gradient-32);}.cls-30{fill:url(#linear-gradient-11);}.cls-31{fill:url(#linear-gradient-50);}.cls-32{fill:url(#linear-gradient-63);}.cls-33{fill:#f2b33d;}.cls-34{fill:#f29e5f;}.cls-35{fill:url(#linear-gradient-39);}.cls-36{fill:url(#linear-gradient-10);}.cls-37{fill:#ce6824;}.cls-38{fill:#ff685f;}.cls-39{fill:url(#linear-gradient-59);}.cls-40{fill:url(#linear-gradient-49);}.cls-41{fill:url(#linear-gradient-37);}.cls-42{fill:#ffbb6e;}.cls-43{fill:url(#linear-gradient-16);}.cls-44{fill:url(#linear-gradient-31);}.cls-45{fill:#e2cebc;}.cls-46{fill:#47393d;}.cls-47{fill:url(#linear-gradient-61);}.cls-48{fill:url(#linear-gradient-62);}.cls-49{fill:url(#linear-gradient-41);}.cls-50{fill:#f7bb8d;}.cls-51{fill:#ffe45f;}.cls-52{fill:#756a6d;}.cls-53{fill:#f7ab6d;}.cls-54{fill:#edfcfc;}.cls-55{fill:url(#linear-gradient-21);}.cls-56{fill:url(#linear-gradient-25);}.cls-57{fill:url(#linear-gradient-5);}.cls-58{fill:url(#linear-gradient-64);}.cls-59{fill:url(#linear-gradient-54);}.cls-60{fill:url(#linear-gradient-45);}.cls-61{fill:url(#linear-gradient-55);}.cls-62{fill:#b9e1ea;}.cls-63{fill:url(#linear-gradient-34);}.cls-64{fill:url(#linear-gradient-65);}.cls-65{fill:url(#linear-gradient-7);}.cls-66{fill:url(#linear-gradient-66);}.cls-67{fill:url(#linear-gradient-24);}.cls-68{fill:url(#linear-gradient-9);}.cls-69{fill:url(#linear-gradient-22);}.cls-70{fill:url(#linear-gradient-42);}.cls-71{fill:#f3e7db;}.cls-72{fill:#c4f0f7;}.cls-73{fill:url(#linear-gradient-3);}.cls-74{fill:#ffd45c;}.cls-75{fill:#e58d51;}.cls-76{fill:url(#linear-gradient);}.cls-77{fill:url(#linear-gradient-27);}.cls-78{fill:url(#linear-gradient-33);}.cls-79{fill:url(#linear-gradient-38);}.cls-80{fill:url(#linear-gradient-29);}.cls-81{fill:#ffecdd;}.cls-82{fill:#488f9b;}.cls-83{fill:url(#linear-gradient-30);}.cls-84{fill:url(#linear-gradient-23);}.cls-85{fill:url(#linear-gradient-19);}.cls-86{fill:url(#linear-gradient-4);}.cls-87{fill:url(#linear-gradient-8);}.cls-88{fill:url(#linear-gradient-44);}.cls-89{fill:url(#linear-gradient-57);}.cls-90{fill:#efd0b4;}.cls-91{fill:url(#linear-gradient-47);}.cls-92{fill:url(#linear-gradient-46);}.cls-93{fill:url(#linear-gradient-12);}.cls-94{fill:url(#linear-gradient-13);}.cls-95{fill:url(#linear-gradient-26);}</style><linearGradient id="linear-gradient" x1="489.67" y1="133.01" x2="351.1" y2="238.26" gradientTransform="translate(452.93 -6.1) rotate(13.77)" gradientUnits="userSpaceOnUse"><stop offset=".54" stop-color="#ffd9b4"/><stop offset=".93" stop-color="#f29e5f"/></linearGradient><linearGradient id="linear-gradient-2" x1="651.37" y1="630.5" x2="685.88" y2="72.42" gradientTransform="matrix(1,0,0,1,0,0)" xlink:href="#linear-gradient"/><linearGradient id="linear-gradient-3" x1="665.92" y1="262.96" x2="663.54" y2="142.91" gradientUnits="userSpaceOnUse"><stop offset=".4" stop-color="#ae451d"/><stop offset=".93" stop-color="#ff9a00"/></linearGradient><linearGradient id="linear-gradient-4" x1="689.39" y1="-160.8" x2="659.25" y2="116.85" xlink:href="#linear-gradient-3"/><linearGradient id="linear-gradient-5" x1="682.17" y1="594.88" x2="649.91" y2="302.42" xlink:href="#linear-gradient-3"/><linearGradient id="linear-gradient-6" x1="462.17" y1="296.06" x2="817.56" y2="591.17" gradientUnits="userSpaceOnUse"><stop offset="0" stop-color="#ffbb6e"/><stop offset=".86" stop-color="#ff9a00"/></linearGradient><linearGradient id="linear-gradient-7" x1="824.39" y1="691.98" x2="661.77" y2="434.96" xlink:href="#linear-gradient-3"/><linearGradient id="linear-gradient-8" x1="864.98" y1="326.06" x2="622.24" y2="45.23" xlink:href="#linear-gradient-3"/><linearGradient id="linear-gradient-9" x1="1091.78" y1="918.59" x2="640.79" y2="408.11" gradientUnits="userSpaceOnUse"><stop offset=".48" stop-color="#ae451d"/><stop offset=".9" stop-color="#ff9a00"/></linearGradient><linearGradient id="linear-gradient-10" x1="791.96" y1="219.71" x2="532.55" y2="574.32" xlink:href="#linear-gradient-9"/><linearGradient id="linear-gradient-11" x1="565.45" y1="-69.43" x2="645.18" y2="47.59" xlink:href="#linear-gradient-3"/><linearGradient id="linear-gradient-12" x1="72.61" y1="-143.05" x2="152.33" y2="-26.04" gradientTransform="translate(556.83 23.13) rotate(18.99)" xlink:href="#linear-gradient-3"/><linearGradient id="linear-gradient-13" x1="589.95" y1="314.32" x2="620.49" y2="573.72" gradientUnits="userSpaceOnUse"><stop offset=".4" stop-color="#ffe45f"/><stop offset=".93" stop-color="#ff9a00"/></linearGradient><linearGradient id="linear-gradient-14" x1="607.1" y1="378.41" x2="648.62" y2="571.98" xlink:href="#linear-gradient-13"/><linearGradient id="linear-gradient-15" x1="1451.14" y1="868.7" x2="1492.65" y2="1062.26" gradientTransform="translate(-1056.07 455.11) rotate(-32.91)" xlink:href="#linear-gradient-13"/><linearGradient id="linear-gradient-16" x1="1327.59" y1="263.15" x2="1506.15" y2="436.58" gradientUnits="userSpaceOnUse"><stop offset=".08" stop-color="#ffbb6e"/><stop offset="1" stop-color="#ff9a00"/></linearGradient><linearGradient id="linear-gradient-17" x1="1090.95" y1="-388.07" x2="1279.77" y2="-1225.48" gradientTransform="translate(900.23 -888.48) rotate(90) scale(1 .76)" gradientUnits="userSpaceOnUse"><stop offset="0" stop-color="#ffbb6e"/><stop offset="1" stop-color="#fff"/></linearGradient><linearGradient id="linear-gradient-18" x1="1354.18" y1="183.17" x2="1506.06" y2="527.3" gradientUnits="userSpaceOnUse"><stop offset="0" stop-color="#ffbb6e"/><stop offset=".16" stop-color="#ffb865"/><stop offset=".4" stop-color="#ffb14f"/><stop offset=".7" stop-color="#ffa72c"/><stop offset="1" stop-color="#ff9a00"/></linearGradient><linearGradient id="linear-gradient-19" x1="1186.18" y1="32.18" x2="1526.2" y2="546.65" gradientUnits="userSpaceOnUse"><stop offset="0" stop-color="#ffbb6e"/><stop offset="1" stop-color="#ff9a00"/></linearGradient><linearGradient id="linear-gradient-20" x1="1353.79" y1="134.76" x2="1387.84" y2="386.27" xlink:href="#linear-gradient-19"/><linearGradient id="linear-gradient-21" x1="1376.82" y1="429.55" x2="1369.52" y2="262.44" xlink:href="#linear-gradient-3"/><linearGradient id="linear-gradient-22" x1="1201.57" y1="182.98" x2="1364.31" y2="354.76" xlink:href="#linear-gradient-3"/><linearGradient id="linear-gradient-23" x1="1102.21" y1="178.2" x2="1424.74" y2="548.16" gradientUnits="userSpaceOnUse"><stop offset=".27" stop-color="#ffbb6e"/><stop offset="1" stop-color="#ff9a00"/></linearGradient><linearGradient id="linear-gradient-24" x1="1146.04" y1="223.64" x2="1339.41" y2="457.88" xlink:href="#linear-gradient-16"/><linearGradient id="linear-gradient-25" x1="993.45" y1="-236.62" x2="1194.95" y2="-1130.22" gradientTransform="translate(161.45 -58.75) rotate(35.61) scale(1 .76)" xlink:href="#linear-gradient-17"/><linearGradient id="linear-gradient-26" x1="1217.13" y1="209.35" x2="1379.2" y2="576.56" xlink:href="#linear-gradient-18"/><linearGradient id="linear-gradient-27" x1="1041.68" y1="45.73" x2="1404.48" y2="594.69" xlink:href="#linear-gradient-19"/><linearGradient id="linear-gradient-28" x1="1311.84" y1="459.72" x2="1290.92" y2="332.75" xlink:href="#linear-gradient-3"/><linearGradient id="linear-gradient-29" x1="1372.2" y1="264.06" x2="1472.9" y2="370.35" xlink:href="#linear-gradient-3"/><linearGradient id="linear-gradient-30" x1="1457.44" y1="273.32" x2="1544.52" y2="472.78" xlink:href="#linear-gradient-19"/><linearGradient id="linear-gradient-31" x1="1237.79" y1="-415.33" x2="1426.62" y2="-1252.74" gradientTransform="translate(161.45 -58.75) rotate(35.61) scale(1 .76)" xlink:href="#linear-gradient-17"/><linearGradient id="linear-gradient-32" x1="1317.6" y1="100.9" x2="1657.61" y2="615.37" xlink:href="#linear-gradient-19"/><linearGradient id="linear-gradient-33" x1="1483.88" y1="199.43" x2="1517.93" y2="450.93" xlink:href="#linear-gradient-19"/><linearGradient id="linear-gradient-34" x1="1506.91" y1="494.21" x2="1499.61" y2="327.11" xlink:href="#linear-gradient-3"/><linearGradient id="linear-gradient-35" x1="1331.91" y1="247.99" x2="1494.65" y2="419.77" xlink:href="#linear-gradient-3"/><linearGradient id="linear-gradient-36" x1="1445.9" y1="288.21" x2="1608.63" y2="459.99" xlink:href="#linear-gradient-3"/><linearGradient id="linear-gradient-37" x1="1255.56" y1="288.23" x2="1484.69" y2="509.34" xlink:href="#linear-gradient-16"/><linearGradient id="linear-gradient-38" x1="1140.3" y1="-263.87" x2="1341.8" y2="-1157.47" gradientTransform="translate(161.45 -58.75) rotate(35.61) scale(1 .76)" xlink:href="#linear-gradient-17"/><linearGradient id="linear-gradient-39" x1="1348.54" y1="278.07" x2="1510.61" y2="645.28" xlink:href="#linear-gradient-18"/><linearGradient id="linear-gradient-40" x1="1174.61" y1="113.42" x2="1537.44" y2="662.41" xlink:href="#linear-gradient-19"/><linearGradient id="linear-gradient-41" x1="1444.59" y1="521.8" x2="1423.67" y2="394.82" xlink:href="#linear-gradient-3"/><linearGradient id="linear-gradient-42" x1="1504.77" y1="325.39" x2="1605.47" y2="431.69" xlink:href="#linear-gradient-3"/><linearGradient id="linear-gradient-43" x1="1313.13" y1="531.59" x2="1328.21" y2="421.16" xlink:href="#linear-gradient-3"/><linearGradient id="linear-gradient-44" x1="1588.82" y1="395.42" x2="1726.99" y2="529.62" xlink:href="#linear-gradient-16"/><linearGradient id="linear-gradient-45" x1="1380.38" y1="-446.9" x2="1569.21" y2="-1284.31" gradientTransform="translate(161.45 -58.75) rotate(35.61) scale(1 .76)" xlink:href="#linear-gradient-17"/><linearGradient id="linear-gradient-46" x1="1654.42" y1="328.19" x2="1751.21" y2="547.49" xlink:href="#linear-gradient-18"/><linearGradient id="linear-gradient-47" x1="1601.89" y1="495.99" x2="1610.09" y2="508.38" xlink:href="#linear-gradient-19"/><linearGradient id="linear-gradient-48" x1="1605.62" y1="325.18" x2="1736.23" y2="522.81" xlink:href="#linear-gradient-19"/><linearGradient id="linear-gradient-49" x1="1659.92" y1="519.41" x2="1656.03" y2="422.76" xlink:href="#linear-gradient-3"/><linearGradient id="linear-gradient-50" x1="1432.58" y1="297.63" x2="1648.82" y2="525.88" gradientTransform="translate(44.51 -145.59) rotate(5.01)" xlink:href="#linear-gradient-3"/><linearGradient id="linear-gradient-51" x1="1456.09" y1="420.73" x2="1633.82" y2="593.35" xlink:href="#linear-gradient-16"/><linearGradient id="linear-gradient-52" x1="1282.89" y1="-295.45" x2="1484.39" y2="-1189.05" gradientTransform="translate(161.45 -58.75) rotate(35.61) scale(1 .76)" xlink:href="#linear-gradient-17"/><linearGradient id="linear-gradient-53" x1="1494.62" y1="342.96" x2="1641.07" y2="674.79" xlink:href="#linear-gradient-18"/><linearGradient id="linear-gradient-54" x1="1311.34" y1="184.92" x2="1664.32" y2="719.02" xlink:href="#linear-gradient-19"/><linearGradient id="linear-gradient-55" x1="1288.02" y1="281.81" x2="1608.11" y2="619.69" xlink:href="#linear-gradient-3"/><linearGradient id="linear-gradient-56" x1="1252.47" y1="1089.85" x2="1425.13" y2="1257.55" gradientTransform="translate(-73.44 157.2) rotate(60.63) scale(1 -1)" xlink:href="#linear-gradient-16"/><linearGradient id="linear-gradient-57" x1="1513.1" y1="550.52" x2="1695.69" y2="-259.22" gradientTransform="translate(1202.75 -822.83) rotate(90) scale(1 -.76)" xlink:href="#linear-gradient-17"/><linearGradient id="linear-gradient-58" x1="1278.18" y1="1012.52" x2="1425.03" y2="1345.26" gradientTransform="translate(-73.44 157.2) rotate(60.63) scale(1 -1)" xlink:href="#linear-gradient-18"/><linearGradient id="linear-gradient-59" x1="1115.75" y1="866.54" x2="1444.51" y2="1363.97" gradientTransform="translate(-73.44 157.2) rotate(60.63) scale(1 -1)" xlink:href="#linear-gradient-19"/><linearGradient id="linear-gradient-60" x1="663" y1="855.41" x2="1090.71" y2="855.41" gradientUnits="userSpaceOnUse"><stop offset=".4" stop-color="#9fc6d1"/><stop offset=".93" stop-color="#65aaba"/></linearGradient><linearGradient id="linear-gradient-61" x1="439.92" y1="577.09" x2="546.58" y2="832.23" gradientTransform="translate(282.16 12.13) rotate(9.55)" gradientUnits="userSpaceOnUse"><stop offset=".4" stop-color="#f7ab6d"/><stop offset=".93" stop-color="#e58645"/></linearGradient><linearGradient id="linear-gradient-62" x1="1034.36" y1="646.07" x2="1290.23" y2="866.24" xlink:href="#linear-gradient-60"/><linearGradient id="linear-gradient-63" x1="1131.98" y1="669.23" x2="1016.62" y2="628.26" xlink:href="#linear-gradient-60"/><linearGradient id="linear-gradient-64" x1="399.21" y1="507.66" x2="374.27" y2="378.95" gradientUnits="userSpaceOnUse"><stop offset=".4" stop-color="#b9e1ea"/><stop offset="1" stop-color="#65aaba"/></linearGradient><linearGradient id="linear-gradient-65" x1="325.72" y1="404.75" x2="442.44" y2="404.75" gradientUnits="userSpaceOnUse"><stop offset="0" stop-color="#8d7f82"/><stop offset="1" stop-color="#756a6d"/></linearGradient><linearGradient id="linear-gradient-66" x1="365.96" y1="519.19" x2="464.74" y2="663.62" xlink:href="#linear-gradient-60"/></defs><g id="Layer_1"><path class="cls-54" d="m93.66,563.11S164,221.4,380.9,81.65c216.9-139.75,699.63-77.14,772.84,17.01,73.21,94.15,400.17,135.74,388.36,361.09-11.81,225.35-264.94,289.39-264.94,289.39,0,0-755.35-10.26-810.55-23.16-55.2-12.91-372.95-162.86-372.95-162.86Z"/><path class="cls-33" d="m225.4,527.36l1558.5-15.56s114.22,26.76,193.63,94.6c79.4,67.84,16.37,282.07-251.29,321.95-267.66,39.88-344.88,127.47-599.43,155.98-254.55,28.51-798.76,65.79-941.13-107.46C43.3,803.63,74.72,724.64,14.55,673.12c-41.24-35.3-1.93-155.81,210.85-145.76Z"/><path class="cls-24" d="m1495.86,813.82s31.24,23.13,176.98-8.98c145.75-32.11-16.94-78.7-81.87-77.64-64.93,1.06-95.11,86.62-95.11,86.62Z"/><path class="cls-24" d="m313.91,604.36s59.97,29.4,160.9,18.25c100.93-11.16,95.79-26.16,49.84-49.04-45.96-22.88-93.38-15.12-93.38-15.12l-117.36,45.91Z"/><path class="cls-24" d="m1214.02,531.7s218.56,113.81,268.55,129.16c49.99,15.35,255.38-18.41,309.37-44.14,53.99-25.73,101.63-90.71-87.87-126.24-189.5-35.53-490.05,41.22-490.05,41.22Z"/><path class="cls-24" d="m1246.14,543.21s232.71,249.97,250.57,290.93c17.86,40.95-100.05,55.4-114.67,51.88-14.62-3.52-126.24-101.48-127.6-121.84s-32.06-215.22-32.06-215.22c0,0-4.35-15.78,23.76-5.74Z"/><path class="cls-76" d="m776.92,447.46c-.52-.13-1.04-.28-1.56-.46-8.83-3.08-13.5-12.74-10.42-21.57l46.57-133.6c4.71-13.51,3.71-27.96-2.82-40.69-6.53-12.73-17.68-21.98-31.4-26.03l-82.91-24.53c-8.97-2.65-14.09-12.08-11.44-21.05,2.65-8.97,12.09-14.08,21.05-11.44l82.91,24.53c22.69,6.71,41.14,22.01,51.93,43.06,10.8,21.06,12.46,44.96,4.67,67.3l-46.57,133.6c-2.9,8.32-11.63,12.94-20.01,10.88Z"/><ellipse class="cls-21" cx="661.85" cy="573.87" rx="129.26" ry="50.38"/><path class="cls-1" d="m863.85,442.38c0,87.44-89.93,158.32-200.86,158.32s-200.84-70.88-200.84-158.32c0-59.84,42.12-111.93,104.28-138.83,25.92-11.22,42.94-36.48,42.94-64.72v-87.3h111.91v89.35c0,27.81,16.52,52.75,41.84,64.25,60.2,27.33,100.73,78.57,100.73,137.26Z"/><path class="cls-71" d="m847.56,426.15c-3.96,10.31-145.96,24.6-245.47,23.01-99.51-1.59-125.79-19.04-125.79-19.04,0,0,.8-18.25,7.14-36.5,6.34-18.24,34.91-49.98,66.64-65.05,31.74-15.07,65.05-40.45,68.65-64.25,2.14-14.19,1.73-48.56,1.04-73.99-.18-6.61-.37-12.62-.54-17.51-.28-7.86-.5-12.85-.5-12.85l54.29,14.05,36.22,9.38s-.64,2.47-1.1,9.36c-.65,9.66-.94,28.03,1.38,60.44,3.97,55.54,50.77,65.05,50.77,65.05,76.16,42.84,91.23,97.57,87.26,107.89Z"/><path class="cls-73" d="m709.25,183.4s-.64,2.47-1.1,9.36c-49.74,12.07-79,1.88-88.37-2.44-.18-6.61-.37-12.62-.54-17.51,3.55.09,29.72.68,53.79,1.21l36.22,9.38Z"/><path class="cls-21" d="m744.31,157.82c0,17.01-35.36,30.78-78.98,30.78-21.87,0-41.66-3.46-55.96-9.07,0,0-.12-.05-.37-.15-.12-.05-.27-.11-.45-.18-.11-.04-.24-.09-.39-.15-4.32-1.56-19.81-6.17-37,.47-20.27,7.85-5.42-27.56,33.87-41.58.03-.01.07-.03.09-.04,14.47-6.65,36.08-10.87,60.2-10.87,43.62,0,78.98,13.78,78.98,30.78Z"/><path class="cls-3" d="m523.09,397.54s62.25-32.48,112.84-36.44c50.59-3.97,63.7-3.97,113.86,4.76,50.17,8.73,98.56,33.28,97.77,60.29-.79,27.01-152.31-9.52-152.31-9.52l-172.16-19.09Z"/><path class="cls-86" d="m728.56,47.5l-8.12,101.02c0,11.86-24.68,21.48-55.12,21.48s-55.1-9.62-55.1-21.48l-.6-7.35-7.53-93.67h126.47Z"/><path class="cls-57" d="m478.87,420.64c1.91-2.5,11.44-25.16,97.65-36.79,86.2-11.64,145.44-9.98,179.81-2.34,34.38,7.63,91.38,25.72,91.23,44.65l-232.44-15.34-136.25,9.82Z"/><path class="cls-19" d="m847.68,438.32c-3.21,151.92-182.36,149.67-182.36,149.67-160.54-12.71-185.18-106.29-188.62-143.07-.87-9.16-.41-14.8-.41-14.8,0,0,165.01,19.83,255.44,13.48,90.43-6.34,115.82-17.46,115.82-17.46.16,4.16.2,8.23.12,12.17Z"/><path class="cls-65" d="m847.68,438.32c-6.38,9.64-17.96,20.56-38.99,28.5-46.81,17.66-123.76,11.7-155.48,0-31.73-11.7-93.6-1.8-130.9-.05-19.95.94-35.48-10.76-45.6-21.85-.87-9.16-.41-14.8-.41-14.8,0,0,165.01,19.83,255.44,13.48,90.43-6.34,115.82-17.46,115.82-17.46.16,4.16.2,8.23.12,12.17Z"/><path class="cls-74" d="m614.34,458.96s-102.94-1.87-120.49-15.36l-17.55-13.49s-4.99-17.45,40.74-30.94c45.73-13.49,181.87-23.8,230.42-13.49,48.54,10.31,100.11,24.63,100.11,40.46s-11.28,30.15-67.52,38.08c-56.23,7.93-165.71-5.27-165.71-5.27Z"/><path class="cls-34" d="m575.27,164.16s22.78-10.64,50.36-.76c27.58,9.88-8.91-18.08-8.91-18.08,0,0-24.59-1.98-41.45,18.84Z"/><path class="cls-51" d="m564.36,430.38s-2.35.54-6.08,1.24c-11.91,2.22-37.95,6.01-46.81-1.24-11.63-9.52,7.4-26.44,61.88-32.26,54.47-5.82,90.96-7.93,96.25,0,5.29,7.93-5.82,26.97-35.96,19.04-30.15-7.93-57.14,10.95-69.28,13.22Z"/><path class="cls-87" d="m728.56,47.5l-8.12,101.02c0,11.86-24.68,21.48-55.12,21.48s-55.1-9.62-55.1-21.48l-.6-7.35c18.88,4.51,67.46,11,78.48-38.16,7.48-33.34,10.88-48.56,12.44-55.51h28.01Z"/><ellipse class="cls-42" cx="665.33" cy="47.51" rx="63.23" ry="24.65"/><path class="cls-51" d="m592.12,437.65s4.36-13.09,28.56-9.12c24.2,3.97,85.28,10.36,102.33,4.19,17.06-6.17,46.01,15.07,8.33,19.33-37.68,4.25-161.04.68-139.22-14.39Z"/><path class="cls-68" d="m684.94,573.7s4.33-.8,11.4-2.47c26.01-6.15,89.15-24.14,110.77-57.82,27.5-42.84-7.4-30.67-25.39-24.33-17.98,6.35-38.08,51.83-76.69,58.17-38.61,6.35-30.87,28.77-20.1,26.44Z"/><path class="cls-36" d="m602.09,538.4s-37.73-4.88-50.95-31.33c-13.22-26.45-41.25-24.33-39.14-13.22,2.12,11.11,27.5,58.17,85.68,62.41,58.17,4.23,21.92-13.27,4.41-17.85Z"/><ellipse class="cls-3" cx="640.52" cy="232.54" rx="7.41" ry="34.64"/><path class="cls-3" d="m627.02,305.21c-7.08,7.91-15.29,12.12-18.34,9.39-3.05-2.73.22-11.35,7.3-19.27s15.29-12.12,18.34-9.39c3.05,2.73-.22,11.35-7.3,19.27Z"/><path class="cls-3" d="m511.22,404.16c-4.98,9.38-11.94,15.43-15.55,13.51s-2.51-11.08,2.47-20.45,11.94-15.43,15.55-13.51c3.61,1.92,2.51,11.08-2.47,20.45Z"/><path class="cls-30" d="m650.43,44.65c0,1.58-3.24,2.85-7.25,2.85s-7.25-1.28-7.25-2.85,3.24-2.85,7.25-2.85,7.25,1.28,7.25,2.85Z"/><path class="cls-93" d="m715.27,47.01c-.51,1.49-4,1.64-7.78.34-3.78-1.3-6.44-3.57-5.92-5.06.51-1.49,4-1.64,7.78-.34,3.78,1.3,6.44,3.57,5.92,5.06Z"/><path class="cls-3" d="m797.56,208.39c-.62,2.1-9.3,1.4-19.38-1.57-10.09-2.97-17.76-7.08-17.14-9.18.62-2.1,9.3-1.4,19.38,1.57,10.09,2.97,17.76,7.08,17.14,9.18Z"/><path class="cls-94" d="m570.65,475.73s56.78-10.31,74.63,0c17.85,10.31,9.88,28.16-9.34,21.42-19.22-6.74-37.47,7.06-57.3-2.02-19.83-9.08-13.91-18.43-7.99-19.4Z"/><path class="cls-51" d="m723.66,402.84c-.44,3.04-7.21,4.56-15.13,3.42s-13.97-4.54-13.53-7.58c.44-3.03,7.21-4.56,15.13-3.42s13.97,4.54,13.53,7.58Z"/><path class="cls-16" d="m645.65,517.08c-.35,2.43-4.71,3.81-9.73,3.08-5.02-.73-8.8-3.29-8.45-5.72.35-2.43,4.71-3.81,9.73-3.08,5.02.73,8.8,3.29,8.45,5.72Z"/><path class="cls-8" d="m741.92,491.29c1.03,2.23-1.88,5.76-6.49,7.88-4.61,2.12-9.18,2.02-10.2-.21-1.03-2.23,1.88-5.76,6.49-7.88,4.61-2.12,9.18-2.02,10.2.21Z"/><path class="cls-90" d="m1740.19,448.11s-31.37,107.27-38.67,119.67c-6.5,11.03-38.95,27.83-62.99,29.36-2.99.19-5.85.15-8.52-.17-9.2-1.11-21.16-5.21-32.84-10.3-18.91-8.22-37.07-19.04-41.59-24-7.3-8.03-37.95-114.56-37.95-114.56h222.56Z"/><path class="cls-7" d="m1660.16,510.28l-21.64,86.87c-2.99.19-5.85.15-8.52-.17-9.2-1.11-21.16-5.21-32.84-10.3l5.52-37.48,57.48-38.92Z"/><path class="cls-71" d="m1342.25,380s-31.37,107.27-38.67,119.67c-.44.75-1.01,1.53-1.68,2.33-7.7,9.14-29.77,20.93-49.9,25.36-7.13,1.57-14.02,2.22-19.94,1.5-24.08-2.93-67.13-26.27-74.43-34.3-7.3-8.03-37.95-114.57-37.95-114.57h222.56Z"/><path class="cls-90" d="m1301.9,502c-7.7,9.14-29.77,20.93-49.9,25.36-6.31-30.63-11.59-77.8-11.59-77.8,0,0,46.07,36.54,61.49,52.43Z"/><path class="cls-71" d="m1473.6,448.11s-26.93,92.09-36.7,115.49c-.77,1.85-1.44,3.27-1.98,4.19-7.3,12.4-47.43,32.1-71.51,29.19-1.22-.15-2.48-.35-3.8-.6-24.55-4.65-63.7-26.08-70.63-33.7-7.31-8.03-37.95-114.56-37.95-114.56h222.56Z"/><path class="cls-90" d="m1438.14,554.07l-1.25,9.53c-.77,1.85-1.44,3.27-1.98,4.19-7.3,12.4-47.43,32.1-71.51,29.19-1.22-.15-2.48-.35-3.8-.6-7.98-26.26-10.02-88.32-10.02-88.32l88.55,46.01Z"/><path class="cls-71" d="m1617.6,522.68s-5.34,18.23-12.13,40.54c-9.66,31.79-22.26,71.85-26.55,79.13-6.18,10.5-35.89,26.24-59.48,29.05-4.27.51-8.34.59-12.03.14-24.08-2.92-67.13-26.27-74.43-34.29-7.3-8.03-37.95-114.57-37.95-114.57h222.57Z"/><path class="cls-90" d="m1606.71,559.15c-9.66,31.79-23.5,75.92-27.79,83.21-6.18,10.5-35.89,26.24-59.48,29.05-3.55-25.26,2.73-90.34,2.73-90.34l84.53-21.91Z"/><path class="cls-7" d="m1129.69,393.98l340.01,188.3s37.57,21.4,67.55,18.49c29.99-2.92,188.97-135.6,188.97-135.6l-577.84-77.45-18.69,6.26Z"/><path class="cls-71" d="m1240.41,320.73s20.86-55.42,22.42-69.98,6.03-14.52,25.57-16.42c19.55-1.9,26.52,6.74,25.69,14.55s27.22,88.67,27.22,88.67c0,0-85.81-5.11-87.29-4.26-1.47.85-13.61-12.56-13.61-12.56Z"/><path class="cls-45" d="m1596.19,373.53s-31.38,107.27-38.68,119.67c-7.3,12.41-47.43,32.11-71.51,29.19-24.08-2.92-67.13-26.27-74.43-34.3-7.3-8.03-37.95-114.57-37.95-114.57h222.56Z"/><path class="cls-45" d="m1464.84,305.43s-31.38,107.27-38.68,119.67-47.43,32.11-71.51,29.19c-24.08-2.92-67.13-26.27-74.43-34.3-7.3-8.03-37.95-114.57-37.95-114.57h222.56Z"/><path class="cls-71" d="m1730.56,462.22l-75.83,43.36s-.04.02-.07.04l-77.26,44.18c-40.51,23.16-89.95,24.47-131.62,3.47l-239.13-120.51-76.95-38.78c-31.15-15.7-29.61-60.68,2.53-74.21l219.13-92.24c17.08-7.19,36.43-6.58,53.02,1.65l324.07,160.91c29.3,14.54,30.51,55.9,2.11,72.14Z"/><path class="cls-5" d="m1722.11,437.51c-1.03,1.11-2.32,2.15-3.92,3.07l-8.75,5-10.23,5.85-2.8,1.6-16.44,9.4-70.18,40.13s0,0-.02,0l-5.12,2.93-15.45,8.83h0l-10.65,6.09-4.63,2.65-8.9,5.09c-4.59,2.63-9.34,4.92-14.23,6.86-1.53.62-3.07,1.19-4.61,1.74h0c-12.11,4.25-24.91,6.45-37.81,6.45-8.67,0-17.34-1.01-25.79-2.97h-.02c-8.85-2.06-17.45-5.16-25.56-9.24l-45.53-22.95-3.68-1.85-31.21-15.73h0l-26.96-13.6-72.02-36.29h0l-.17-.08-36.95-18.62-26.43-13.32-67.38-33.96-5.73-2.88c-8.23-4.15-8.88-11.73-8.77-14.8.1-3.07,1.26-10.6,9.76-14.17l3.25-1.37,1.72-.72,129.61-54.56,17.44-7.34,2.37-1,12.28-5.17,52.46-22.08c4.79-2.01,9.84-3.03,15.03-3.03,5.94,0,11.9,1.4,17.23,4.04l196.43,97.53,18.28,9.08h0l7.13,3.55,56.09,27.85,21.88,10.86,7.41,3.68,16.84,8.36s.03.02.05.02c7.7,3.85,8.73,10.94,8.81,13.8.07,2.27-.3,7.18-4.11,11.26Z"/><path class="cls-42" d="m1461.44,317.51c0,58.09-40.82,89.41-87.59,89.41s-87.58-31.32-87.58-89.41c0-4.24.22-8.5.64-12.76,5.35-54.17,43.59-108.2,86.94-108.2,7.61,0,15.07,1.67,22.21,4.71,36.76,15.63,65.37,67.62,65.37,116.25Z"/><path class="cls-43" d="m1461.44,317.51c0,58.09-40.82,89.41-87.59,89.41s-87.58-31.32-87.58-89.41c0-4.24.22-8.5.64-12.76,20.64,21.7,53.84,44.67,91.04,24.18,46.28-25.5,33.74-90.92,18.11-127.67,36.76,15.63,65.37,67.62,65.37,116.25Z"/><ellipse class="cls-4" cx="1338.29" cy="245.34" rx="23.59" ry="9.51" transform="translate(359.55 1190.47) rotate(-54.39)"/><path class="cls-11" d="m1421.58,235.88s17.79,25.66,23.95,58.84c6.16,33.18,6.84,69.44-29.76,86.2-36.6,16.76-7.53-.93,2.74-16.03,10.26-15.1,32.5-55.46,3.08-129.01Z"/><path class="cls-85" d="m1355.39,369.46s55.42-1.54,65.68-47.21,22.06-4.62,14.88,18.47-30.27,48.23-77.48,40.02c0,0-31.81-9.24-3.08-11.29Z"/><path class="cls-18" d="m1453.79,292.66s-4.11-30.42-20.98-36.53c-16.86-6.11-24.16,19.12-30,24.26-5.84,5.14-58.02,23.11-64.52,16.56-6.5-6.55-22.56-34.92-39.1-31.68-16.54,3.23,15.57,74.75,15.57,74.75l67.27,6.59s28.83-3.88,38.42-12.29c9.6-8.41,33.22-25.53,33.33-28.89.11-3.36,0-12.77,0-12.77Z"/><path class="cls-55" d="m1313.63,285.8s22.41,15.61,24.67,22.43c2.25,6.81,50.58,1.62,50.58,1.62,0,0,29.78-28.21,47.35-22.7s8.43,42.31,4.86,47.42c-3.57,5.12-30.85,23.93-59.05,14.85-28.19-9.08-85.45-35.36-85.45-35.36l17.04-28.25Z"/><path class="cls-69" d="m1296.87,258.55s28.65,20.03,34.23,54.08c5.59,34.05-38.46-3.58-38.17-7.31.3-3.73,3.93-46.78,3.93-46.78Z"/><path class="cls-71" d="m1432.48,332.13s-2.44-.14-6.48-.38c-5.46-.32-13.85-.81-23.2-1.33-24.95-1.4-56.7-3.06-57.6-2.54-1.47.86-13.6-12.57-13.6-12.57,0,0,20.86-55.42,22.41-69.98,1.55-14.56,6.03-14.52,25.57-16.42,15.93-1.55,23.52,3.91,25.32,10.21.41,1.43.52,2.9.37,4.35-.62,5.89,15.17,53.3,22.97,76.28,2.55,7.5,4.25,12.39,4.25,12.39Z"/><path class="cls-84" d="m1331.59,352.7c0,2.39-.07,4.75-.2,7.06-1.65,29.94-13.89,52.66-32.01,67.57-6.57,5.42-13.93,9.79-21.83,13.11-.05.02-.1.04-.15.07l-36.95-18.62-26.43-13.32-67.38-33.96c-1.29-6.85-1.97-14.15-1.97-21.9,0-3.76.16-7.55.48-11.33.06-.76.13-1.52.21-2.29,5.7-57.8,46.51-115.47,92.76-115.47,8.13,0,16.08,1.78,23.7,5.03,18.17,7.72,34.48,23.78,46.75,43.94,6.99,11.49,12.67,24.3,16.63,37.67,2.01,6.76,3.58,13.65,4.65,20.58,1.14,7.28,1.74,14.61,1.74,21.87Z"/><path class="cls-67" d="m1331.59,352.7c0,2.39-.07,4.75-.2,7.06-1.65,29.94-13.89,52.66-32.01,67.57-6.57,5.42-13.93,9.79-21.83,13.11-.05.02-.1.04-.15.07l-36.95-18.62-26.43-13.32-67.38-33.96c-1.29-6.85-1.97-14.15-1.97-21.9,0-3.76.16-7.55.48-11.33.06-.76.13-1.52.21-2.29.49.52,1,1.04,1.51,1.56,22.11,22.66,56.83,45.61,95.63,24.23,29.51-16.26,36.61-47.73,33.98-78.79-1.77-20.93-7.95-41.66-14.66-57.44,18.17,7.72,34.48,23.78,46.75,43.94,6.99,11.49,12.67,24.3,16.63,37.67,2.01,6.76,3.58,13.65,4.65,20.58,1.14,7.28,1.74,14.61,1.74,21.87Z"/><path class="cls-56" d="m1208.43,281.59c-8.09,11.3-18.35,17.82-22.91,14.55-4.56-3.26-1.69-15.07,6.4-26.37,8.09-11.3,18.35-17.82,22.91-14.55,4.56,3.26,1.69,15.07-6.4,26.37Z"/><path class="cls-95" d="m1289.05,265.59s18.98,27.38,25.55,62.78c6.57,35.41,7.3,74.1-31.76,91.99-39.06,17.89-8.03-1,2.92-17.11,10.95-16.11,34.68-59.18,3.29-137.66Z"/><path class="cls-77" d="m1304.38,377.47c-3.76,12.1-11.63,24.73-24.62,33.41-.25.17-.51.33-.76.5-.86.57-1.75,1.11-2.67,1.63-9.44,5.43-21.29,8.86-35.89,8.87l-26.43-13.32c1.29-.16,2.75-.3,4.4-.42,0,0,59.13-1.65,70.08-50.38,4.66-20.74,9.62-24.72,13.19-20.54,1.13,1.32,2.12,3.47,2.92,6.17,2.6,8.75,3.14,23.27-.22,34.09Z"/><path class="cls-15" d="m1322.26,311.8s-35.16,19.17-55.6,84.84c0,0,19.53,9.93,18.28,8.61-1.25-1.32,24.04-55.1,24.04-59.34s13.27-34.11,13.27-34.11Z"/><path class="cls-80" d="m1460.28,285.27s-35.16,19.17-55.6,84.84c0,0,19.53,9.93,18.28,8.61-1.25-1.32,24.04-55.1,24.04-59.34s13.27-34.11,13.27-34.11Z"/><path class="cls-71" d="m1280.08,445.74s-50.14-15.48-51.29-25.85c0,0,4.21-16.06,4.7-19.78.09-.7.68-1.45,1.65-2.23,4.22-3.37,15.62-7.05,24.23-7.17,10.6-.16,23.52,5.99,19.36,17.84-2.84,8.09-1.18,22.44.17,30.74.62,3.88,1.18,6.44,1.18,6.44Z"/><path class="cls-42" d="m1592.85,386.23c0,58.09-40.82,89.41-87.59,89.41s-87.58-31.32-87.58-89.41c0-4.24.22-8.5.64-12.76,5.35-54.17,43.59-108.2,86.94-108.2,7.61,0,15.07,1.67,22.21,4.71,36.76,15.63,65.37,67.62,65.37,116.25Z"/><path class="cls-83" d="m1592.85,386.23c0,58.09-40.82,89.41-87.59,89.41s-87.58-31.32-87.58-89.41c0-4.24.22-8.5.64-12.76,20.64,21.7,53.84,44.67,91.04,24.18,46.28-25.5,33.74-90.92,18.11-127.67,36.76,15.63,65.37,67.62,65.37,116.25Z"/><path class="cls-44" d="m1477.44,319.6c-7.59,10.59-17.2,16.7-21.47,13.64-4.27-3.06-1.58-14.12,6-24.71,7.59-10.59,17.2-16.7,21.47-13.64,4.27,3.06,1.58,14.12-6,24.71Z"/><path class="cls-29" d="m1486.8,438.18s55.42-1.54,65.68-47.21c10.26-45.67,22.06-4.62,14.88,18.47-7.18,23.09-30.27,48.23-77.48,40.02,0,0-31.81-9.24-3.08-11.29Z"/><path class="cls-78" d="m1583.88,357.32s-4.11-30.42-20.98-36.53c-16.86-6.11-24.16,19.12-30,24.26-5.84,5.14-58.02,23.11-64.52,16.56-6.5-6.55-22.56-34.92-39.1-31.68-16.54,3.24,15.57,74.75,15.57,74.75l67.27,6.59s28.83-3.88,38.42-12.29,33.22-25.53,33.33-28.89c.11-3.36,0-12.77,0-12.77Z"/><path class="cls-63" d="m1443.72,350.47s22.41,15.61,24.67,22.43,50.58,1.62,50.58,1.62c0,0,29.78-28.21,47.35-22.7,17.57,5.51,8.43,42.31,4.86,47.42-3.57,5.12-30.85,23.93-59.05,14.85-28.19-9.08-85.45-35.36-85.45-35.36l17.04-28.25Z"/><path class="cls-26" d="m1427.21,323.56s28.65,20.03,34.23,54.08c5.59,34.05-38.46-3.58-38.17-7.31.3-3.73,3.93-46.78,3.93-46.78Z"/><path class="cls-90" d="m1428.24,319.74c-.77,4.19-1.53,8.27-2.24,12.01-2.01,10.69-3.57,18.65-3.73,18.72-.22.11-9.55-9.62-19.47-20.05-11.43-12.02-23.64-24.99-23.64-24.99,0,0,3.71-28.17,2.88-31.57-.83-3.41,0-25.91,0-25.91,0,0-6.47-6.2,0-2.6,4.32,2.4,15.75-2.63,22.86-6.22.41,1.43.52,2.9.37,4.35-.62,5.89,15.17,53.3,22.97,76.28Z"/><path class="cls-17" d="m1541.19,363.78s28.65,20.03,34.23,54.08c5.59,34.05-38.46-3.58-38.17-7.31.3-3.73,3.93-46.78,3.93-46.78Z"/><path class="cls-42" d="m1463,421.42v.32c-.07,31.71-11.57,55.91-29.47,71.96-6.58,5.9-14.02,10.7-22.07,14.36l-3.68-1.85-31.21-15.73h0l-10.87-5.48-16.09-8.11-72.02-36.29h0s0-.1-.02-.15c-.87-5.41-1.36-11.09-1.45-17.05-.02-.66-.02-1.31-.02-1.97,0-2.15.05-4.32.16-6.48.02-.26.03-.51.04-.76.02-.39.04-.78.07-1.16.11-1.74.25-3.47.42-5.21,2.48-25.13,11.6-50.23,24.92-70.58.94-1.45,1.91-2.88,2.91-4.27,2.73-3.87,5.63-7.55,8.65-10.98,3.78-4.29,7.78-8.22,11.95-11.71,13.36-11.18,28.52-17.92,44.34-17.92,8.13,0,16.07,1.78,23.7,5.03,27.19,11.56,50.21,41.77,61.76,76.51,2.18,6.53,3.95,13.23,5.27,20,1.78,9.14,2.73,18.4,2.73,27.55Z"/><path class="cls-41" d="m1463,421.42v.32c-.07,31.71-11.57,55.91-29.47,71.96-6.58,5.9-14.02,10.7-22.07,14.36l-3.68-1.85-31.21-15.73h0l-10.87-5.48-16.09-8.11-72.02-36.29h0s0-.1-.02-.15c-.87-5.41-1.36-11.09-1.45-17.05-.02-.66-.02-1.31-.02-1.97,0-2.15.05-4.32.16-6.48.02-.26.03-.51.04-.76.02-.39.04-.78.07-1.16.11-1.74.25-3.47.42-5.21.93.97,1.88,1.95,2.86,2.93.04.05.09.1.14.15,2.42,2.42,4.99,4.83,7.68,7.18,3.73,3.26,7.72,6.39,11.93,9.27,20.57,14.02,46.49,21.72,74.54,6.27,49.38-27.21,35.99-97.02,19.32-136.24,27.19,11.56,50.21,41.77,61.76,76.51,2.18,6.53,3.95,13.23,5.27,20,1.78,9.14,2.73,18.4,2.73,27.55Z"/><path class="cls-79" d="m1339.84,350.31c-8.09,11.3-18.35,17.82-22.91,14.55s-1.69-15.07,6.4-26.37c8.09-11.3,18.35-17.82,22.91-14.55,4.56,3.26,1.69,15.07-6.4,26.37Z"/><path class="cls-35" d="m1420.46,334.31s18.98,27.38,25.55,62.78c6.57,35.41,7.3,74.1-31.76,91.99-39.06,17.89-8.03-1,2.92-17.11,10.95-16.11,34.68-59.18,3.29-137.66Z"/><path class="cls-13" d="m1435.79,446.19c-3.55,11.41-10.74,23.29-22.43,31.89-.96.7-1.94,1.38-2.95,2.03,0,0,0,0,0,0-1.42.92-2.91,1.8-4.45,2.61-8.06,4.28-17.79,7.13-29.39,7.75h0l-10.87-5.48-16.09-8.11c.07,0,.16,0,.23-.02,0,0,10.06-.27,22.65-4.03,12.92-3.84,28.52-11.34,38.64-25.96,3.91-5.66,7.01-12.39,8.8-20.39.88-3.9,1.76-7.21,2.65-9.98,2.19-6.84,4.37-10.42,6.38-11.59,2.88-1.69,5.4,1.55,7.07,7.2h0c2.6,8.76,3.14,23.27-.22,34.09Z"/><path class="cls-90" d="m1278.9,439.3c-2.36.28-4.19.24-5-.05-3.67-1.33-2.75-27.99-2.75-27.99,0,0-23.52-3.63-36-13.37,4.22-3.37,15.62-7.05,24.23-7.17,10.6-.16,23.52,5.99,19.36,17.84-2.84,8.09-1.18,22.44.17,30.74Z"/><path class="cls-49" d="m1455.01,373.87s-35.16,19.17-55.6,84.84c0,0,19.53,9.93,18.28,8.61-1.25-1.32,24.04-55.1,24.04-59.34s13.27-34.11,13.27-34.11Z"/><path class="cls-70" d="m1592.85,346.61s-35.16,19.17-55.6,84.84c0,0,19.53,9.93,18.28,8.61-1.25-1.32,24.04-55.1,24.04-59.34s13.27-34.11,13.27-34.11Z"/><path class="cls-6" d="m1365.84,484.99h-.16l-16.09-8.11-72.02-36.29h0s0-.1-.02-.15c-.87-5.41-1.36-11.09-1.45-17.05-.02-.66-.02-1.31-.02-1.97,0-2.15.05-4.32.16-6.48,4.05,4.27,9.88,11.68,10.04,18.97.25,11.19,24.99,14.1,35.99,20.67,10.99,6.57,43.68,11.1,47.28,13.45,1.1.71,2.22,2.57,2.93,4.8,1.64,5.09,1.16,12.16-6.63,12.16Z"/><path class="cls-42" d="m1722.11,437.51c-1.03,1.11-2.32,2.15-3.92,3.07l-8.75,5-10.23,5.85-2.8,1.6-16.44,9.4-40.07,22.92-30.1,17.21s0,0-.02,0l-5.12,2.93-15.45,8.83h0l-10.65,6.09c-.95-.76-1.89-1.55-2.8-2.35-3.47-3.04-6.67-6.4-9.59-10.08-1.45-1.8-2.81-3.68-4.1-5.64-4.16-6.29-7.54-13.37-9.98-21.21-2.93-9.37-4.54-19.83-4.54-31.33,0-4.23.22-8.5.64-12.76.96-9.78,3-19.56,5.95-29.01.27-.87.55-1.75.84-2.61,1.6-4.81,3.42-9.54,5.48-14.13,7.35-16.5,17.44-31.24,29.27-42.26,13.41-12.5,29.04-20.19,45.4-20.19,7.61,0,15.07,1.66,22.21,4.71,27.33,11.63,50.17,43.37,60.08,78.88,1.06,3.82,1.98,7.68,2.73,11.57.87,4.48,1.54,8.99,1.96,13.5Z"/><path class="cls-88" d="m1722.11,437.51c-1.03,1.11-2.32,2.15-3.92,3.07l-8.75,5-10.23,5.85-2.8,1.6-16.44,9.4-40.07,22.92-30.1,17.21s0,0-.02,0l-5.12,2.93-15.45,8.83h0l-10.65,6.09c-.95-.76-1.89-1.55-2.8-2.35-3.47-3.04-6.67-6.4-9.59-10.08-1.45-1.8-2.81-3.68-4.1-5.64-4.16-6.29-7.54-13.37-9.98-21.21-2.93-9.37-4.54-19.83-4.54-31.33,0-4.23.22-8.5.64-12.76,4.88,5.13,10.45,10.32,16.62,15,3.42,2.6,7.03,5.04,10.8,7.21,5.05,2.93,10.4,5.38,15.99,7.11,7.65,2.38,15.77,3.42,24.23,2.48,7.55-.82,15.39-3.22,23.4-7.64,2.44-1.35,4.72-2.8,6.84-4.36,21.33-15.65,26.95-41.5,25.16-67.35-1.4-20.33-7.38-40.63-13.9-55.96,27.33,11.63,50.17,43.37,60.08,78.88,1.06,3.82,1.98,7.68,2.73,11.57.87,4.48,1.54,8.99,1.96,13.5Z"/><path class="cls-60" d="m1607.29,383.18c-7.59,10.59-17.2,16.7-21.47,13.64-4.27-3.06-1.58-14.12,6-24.71,7.59-10.59,17.2-16.7,21.47-13.64,4.27,3.06,1.58,14.12-6,24.71Z"/><path class="cls-92" d="m1709.44,445.58l-10.23,5.85-2.8,1.6c.4-2.95.7-6.03.89-9.26.05-.9.09-1.81.12-2.73.42-11.73-.71-25.26-4.3-40.66-2.31-9.93-5.66-20.64-10.26-32.19.31.45,10.19,14.86,17.68,35.87,2.5,7.01,4.74,14.75,6.26,22.96.37,1.97.71,3.96,1.03,5.94.68,4.19,1.25,8.41,1.62,12.62Z"/><path class="cls-91" d="m1609.77,502.57l-5.12,2.93c-.22-1.13,1.12-2.18,5.12-2.93Z"/><path class="cls-27" d="m1699.21,451.43l-2.8,1.6-16.44,9.4c.65-1.7,1.23-3.49,1.73-5.35.23-.82.44-1.67.63-2.53,5.75-25.58,11.98-23.95,15.09-13.51.19.65.37,1.34.54,2.05.59,2.48,1.01,5.32,1.25,8.34Z"/><path class="cls-40" d="m1722.11,437.51c-1.03,1.11-2.32,2.15-3.92,3.07l-8.75,5-10.23,5.85-2.8,1.6-16.44,9.4-40.07,22.92c-3.87-.71-7.34-2.09-9.73-4.5-3.1-3.13-8.65-7.59-14.34-11.98-9.15-7.06-18.62-13.96-18.67-14.86-.07-1.45-5.78-10.54-5.78-10.54l1.47,1.3s23.52-4.59,33.25,2.68c6.56,4.9,15.43,12.78,21.16,14.98,8.77,3.37,18.63-.09,28.62-2.74,1.86-.5,3.81-1.4,5.8-2.61,5.06-3.06,10.44-8.09,15.6-13.31.22-.22.44-.45.66-.68,3.44-3.5,6.78-7.06,9.86-10.13,5.04-5.05,9.38-8.82,12.33-8.95.87,4.48,1.54,8.99,1.96,13.5Z"/><path class="cls-71" d="m1411.46,508.06s-50.14-15.48-51.29-25.85c0,0,3.41-12.98,4.45-18.3.12-.6.2-1.11.25-1.48.49-3.71,15.29-9.24,25.89-9.4s23.52,5.99,19.36,17.84c-.65,1.85-1.06,4.05-1.3,6.42-1.27,12.75,2.64,30.77,2.64,30.77Z"/><path class="cls-31" d="m1559.38,389.96s34.78,30.75,40.18,77.37c3.97,34.28-35-6.97-34.38-10.66s-5.8-66.71-5.8-66.71Z"/><path class="cls-71" d="m1656.87,483.94c-2.06,2.99-69.93,36.48-69.93,36.48,0,0,1.43-34.04-3.48-51.81-.06-.2-.11-.39-.17-.58-5.1-17.59,26.27-24.45,37.95-18.47,2.94,1.5,5.92,3.94,8.91,6.72,8.87,8.26,17.89,19.64,26.72,19.35,11.8-.38,2.06,5.3,0,8.3Z"/><path class="cls-90" d="m1410.11,470.88c-.65,1.85-1.06,4.05-1.3,6.42-14.26-.96-35.89-8.69-44.2-13.38.12-.6.2-1.11.25-1.48.49-3.71,15.29-9.24,25.89-9.4s23.52,5.99,19.36,17.84Z"/><path class="cls-90" d="m1630.15,456.29c-5.02,7.3-13.84,16.67-25.52,15.32-9.52-1.11-16.55-2.19-21.17-2.99-.06-.2-.11-.39-.17-.58-5.1-17.59,26.27-24.45,37.95-18.47,2.94,1.5,5.92,3.94,8.91,6.72Z"/><path class="cls-71" d="m1554.68,396.15s-.08,0-.24-.02c-4.94-.29-85.61-5.07-87.04-4.24-1.48.85-13.61-12.57-13.61-12.57,0,0,20.86-55.42,22.41-69.98,1.55-14.56,6.03-14.52,25.57-16.42,14-1.36,21.56,2.68,24.4,7.97,1.14,2.09,1.53,4.37,1.29,6.58-.83,7.81,27.22,88.67,27.22,88.67Z"/><path class="cls-90" d="m1554.68,396.15s-.08,0-.24-.02c-16.91-3.73-50.2-16.13-50.2-16.13,0,0-1.7-33.66,0-39.98,1.7-6.32-7.53-34.59-7.53-34.59,8.63,3.32,28.95-4.34,29.47-4.53,1.14,2.09,1.53,4.37,1.29,6.58-.83,7.81,27.22,88.67,27.22,88.67Z"/><path class="cls-42" d="m1592.85,485c0,6.67-.51,13.02-1.47,19.03-.24,1.53-.52,3.03-.82,4.51-.4,1.97-.85,3.9-1.35,5.78h0l-2.08,1.19-8.57,4.9-4.63,2.65-8.9,5.09c-4.59,2.63-9.34,4.92-14.23,6.86-1.53.62-3.07,1.19-4.61,1.74h0c-12.11,4.25-24.91,6.45-37.81,6.45-8.67,0-17.34-1.01-25.79-2.97h-.02c-8.85-2.06-17.45-5.16-25.56-9.24l-45.53-22.95-3.68-1.85c-.61-3.33-1.07-6.78-1.38-10.33-.09-1.05-.17-2.1-.23-3.17-.16-2.52-.23-5.08-.23-7.7v-.39c0-.63,0-1.26.02-1.89.07-3.77.29-7.56.67-11.34.81-8.23,2.34-16.46,4.49-24.52,2.81-10.54,6.69-20.78,11.45-30.37,1.99-3.99,4.11-7.86,6.38-11.59,2.1-3.47,4.33-6.8,6.67-10,2.45-3.37,5.03-6.57,7.71-9.61,3.7-4.18,7.6-8.01,11.68-11.43,13.36-11.2,28.56-17.95,44.39-17.95,8.12,0,16.07,1.77,23.7,5.02,13.86,5.9,26.64,16.64,37.36,30.36,16.02,20.47,27.47,47.57,31.14,75.08.83,6.22,1.26,12.44,1.26,18.62Z"/><path class="cls-2" d="m1592.85,485c0,6.67-.51,13.02-1.47,19.03-.24,1.53-.52,3.03-.82,4.51-.4,1.97-.85,3.9-1.35,5.78h0l-2.08,1.19-8.57,4.9-4.63,2.65-8.9,5.09c-4.59,2.63-9.34,4.92-14.23,6.86-1.53.62-3.07,1.19-4.61,1.74h0c-12.11,4.25-24.91,6.45-37.81,6.45-8.67,0-17.34-1.01-25.79-2.97h-.02c-8.85-2.06-17.45-5.16-25.56-9.24l-45.53-22.95-3.68-1.85c-.61-3.33-1.07-6.78-1.38-10.33-.09-1.05-.17-2.1-.23-3.17-.16-2.52-.23-5.08-.23-7.7v-.39c0-.63,0-1.26.02-1.89.07-3.77.29-7.56.67-11.34,1.94,2.05,4.01,4.11,6.16,6.15.19.18.38.37.58.55,2.6,2.44,5.34,4.84,8.21,7.14,3.77,3.03,7.76,5.9,11.96,8.48,19.83,12.18,44.11,17.88,70.24,3.48,49.38-27.21,35.99-97.02,19.32-136.24,13.86,5.9,26.64,16.64,37.36,30.36,16.02,20.47,27.47,47.57,31.14,75.08.83,6.22,1.26,12.44,1.26,18.62Z"/><path class="cls-14" d="m1469.69,413.9c-8.09,11.3-18.35,17.82-22.91,14.55-4.56-3.26-1.69-15.07,6.4-26.37s18.35-17.82,22.91-14.55c4.56,3.26,1.69,15.07-6.4,26.37Z"/><path class="cls-20" d="m1577.07,513.3c-.38,1.61-.82,3.21-1.32,4.77-.53,1.7-1.15,3.37-1.83,5l-8.9,5.09c-4.59,2.63-9.34,4.92-14.23,6.86-1.53.62-3.07,1.19-4.61,1.74.29-.4.57-.81.85-1.21,1.41-2.08,3.04-4.61,4.73-7.61,3.61-6.36,7.5-14.83,10.31-25.6,2-7.7,3.44-16.56,3.81-26.67.27-7.23-.02-15.1-1.06-23.63-1.58-13.09-4.9-27.73-10.67-44.01-1.17-3.32-2.44-6.7-3.82-10.15,0,0,1.88,2.72,4.66,7.54,5.94,10.3,15.99,30.19,20.63,53.84.09.47.17.94.27,1.41,3.28,17.73,5.11,36.28,1.21,52.62Z"/><path class="cls-59" d="m1566.16,507.99c-.17.61-.33,1.21-.52,1.79-1.66,5.36-4.14,10.83-7.5,16.01-2.09,3.22-4.54,6.33-7.35,9.24-1.53.62-3.07,1.19-4.61,1.74h0c-12.11,4.25-24.91,6.45-37.81,6.45-8.67,0-17.34-1.01-25.79-2.97,1.47-.13,3.45-.35,5.8-.71h0c16.86-2.58,53.06-12.4,61.38-49.47.76-3.42,1.55-6.38,2.32-8.93,5.44-17.81,10.9-15.23,13.79-5.46,2.46,8.28,3.07,21.72.29,32.31Z"/><path class="cls-61" d="m1591.38,504.04c-.24,1.53-.52,3.03-.82,4.51-.4,1.97-.85,3.9-1.35,5.78h0l-2.08,1.19-8.57,4.9-4.63,2.65-8.9,5.09c-4.59,2.63-9.34,4.92-14.23,6.86-1.53.62-3.07,1.19-4.61,1.74h0c-12.11,4.25-24.91,6.45-37.81,6.45-8.67,0-17.34-1.01-25.79-2.97h-.02c-8.85-2.06-17.45-5.16-25.56-9.24l-45.53-22.95-3.68-1.85c-.61-3.33-1.07-6.78-1.38-10.33,8.14,4.44,21.72,12.07,31.76,18.78,15.26,10.22,38.07,21.48,50.22,24.87h0c12.15,3.39,31.67-12.91,43.35-10.37,6.1,1.32,13.28.66,20.03-1.21,2.19-.6,4.34-1.33,6.38-2.16,3.71-1.51,7.11-3.36,9.86-5.36,2.89-2.11,6.04-4.66,9.08-7.12,6.34-5.14,12.22-9.87,14.31-9.27Z"/><path class="cls-71" d="m1461.19,387.07c-5.02,5.02-7.46,10.73-5.45,12.74,2.01,2.01,7.72-.43,12.74-5.45,5.02-5.02,7.46-10.73,5.45-12.74s-7.72.43-12.74,5.45Z"/><path class="cls-71" d="m1335.92,324.4c-3.27,3.27-4.86,6.98-3.55,8.29,1.31,1.31,5.02-.28,8.29-3.55,3.27-3.27,4.86-6.98,3.55-8.29s-5.02.28-8.29,3.55Z"/><path class="cls-71" d="m1597.19,361.4c-3.27,3.27-4.86,6.98-3.55,8.29s5.02-.28,8.29-3.55c3.27-3.27,4.86-6.98,3.55-8.29s-5.02.28-8.29,3.55Z"/><path class="cls-71" d="m1560.74,446.64c1.36,4.42,3.9,7.56,5.67,7.01,1.77-.55,2.1-4.57.74-8.99-1.36-4.42-3.9-7.56-5.67-7.02s-2.1,4.57-.74,8.99Z"/><path class="cls-3" d="m1654.66,505.62l-77.26,44.18c-40.51,23.16-89.95,24.47-131.62,3.47l-239.13-120.51c97.83,47.69,259.77,125.21,281.31,126.4,31.13,1.72,67.8,1.65,166.71-53.53Z"/><path class="cls-42" d="m1599.86,801.28c48.95-27.55,55.98-76.8,33.8-116.21-22.17-39.4-67.92-58.95-116.87-31.4-3.57,2.01-7.06,4.21-10.45,6.59-43.11,30.19-70.5,88.05-49.95,124.57,3.61,6.42,8.55,11.9,14.5,16.48,30.6,23.56,87.98,23.02,128.97-.04Z"/><path class="cls-12" d="m1599.86,801.28c48.95-27.55,55.98-76.8,33.8-116.21-22.17-39.4-67.92-58.95-116.87-31.4-3.57,2.01-7.06,4.21-10.45,6.59,28.08,7.1,63.18,24.19,63.55,65.25.46,51.09-60.61,71.54-98.99,75.8,30.6,23.56,87.98,23.02,128.97-.04Z"/><ellipse class="cls-89" cx="1480.64" cy="731.74" rx="22.81" ry="9.2" transform="translate(191.4 1764.01) rotate(-64.98)"/><path class="cls-9" d="m1512.17,806.4s30.05,2.82,60.93-7.72c30.88-10.55,61.76-27.17,58.53-65.96-3.23-38.79-4.35-5.9-12.21,9.91-7.86,15.81-31.32,53.69-107.25,63.77Z"/><path class="cls-39" d="m1593.34,687.28s24.98,47.43-8.63,77.73c-33.61,30.3,6.57,20.78,22.62,3.78,16.05-17,26.29-48.38-3.02-84.27,0,0-22.87-22.43-10.97,2.76Z"/><path class="cls-3" d="m1490.4,702.45c2.1,1.68.41,7.27-3.76,12.47-4.17,5.21-9.26,8.07-11.35,6.39-2.1-1.68-.41-7.26,3.76-12.47,4.17-5.21,9.26-8.07,11.35-6.39Z"/><path class="cls-90" d="m1525.28,621.34c0,2.55-3.29,4.62-7.35,4.62s-7.35-2.07-7.35-4.62,3.29-4.62,7.35-4.62,7.35,2.07,7.35,4.62Z"/><path class="cls-90" d="m1468.82,628.72c1.56,2.02.22,5.67-2.99,8.15s-7.08,2.85-8.64.83c-1.56-2.02-.22-5.67,2.99-8.15s7.08-2.85,8.64-.83Z"/><path class="cls-90" d="m1272.48,491.85c1.56,2.02.22,5.67-2.99,8.15-3.21,2.48-7.08,2.85-8.64.83-1.56-2.02-.22-5.67,2.99-8.15s7.08-2.85,8.64-.83Z"/><path class="cls-90" d="m1202.43,460.67c1.56,2.02.22,5.67-2.99,8.15s-7.08,2.85-8.64.83c-1.56-2.02-.22-5.67,2.99-8.15s7.08-2.85,8.64-.83Z"/><path class="cls-90" d="m1357.37,567.74c1.56,2.02.22,5.67-2.99,8.15-3.21,2.48-7.08,2.85-8.64.83-1.56-2.02-.22-5.67,2.99-8.15s7.08-2.85,8.64-.83Z"/><path class="cls-90" d="m1414.39,566.64c.93,1.21.13,3.39-1.79,4.87-1.92,1.48-4.24,1.71-5.17.5s-.13-3.39,1.79-4.87,4.24-1.71,5.17-.5Z"/><path class="cls-90" d="m1252.66,511.06c.93,1.21.13,3.39-1.79,4.87s-4.24,1.71-5.17.5c-.93-1.21-.13-3.39,1.79-4.87s4.24-1.71,5.17-.5Z"/><path class="cls-90" d="m1513.19,614.81c-.9.9-2.8.47-4.23-.96-1.43-1.43-1.87-3.33-.96-4.23s2.8-.47,4.23.96,1.87,3.33.96,4.23Z"/><path class="cls-90" d="m1345.96,559.44c-.9.9-2.8.47-4.23-.96-1.43-1.43-1.87-3.33-.96-4.23s2.8-.47,4.23.96,1.87,3.33.96,4.23Z"/><path class="cls-90" d="m1209.24,480.75c-.9.9-2.8.47-4.23-.96s-1.87-3.33-.96-4.23c.9-.9,2.8-.47,4.23.96,1.43,1.43,1.87,3.33.96,4.23Z"/><path class="cls-90" d="m1447.76,630.01c-.9.9-2.8.47-4.23-.96s-1.87-3.33-.96-4.23,2.8-.47,4.23.96c1.43,1.43,1.87,3.33.96,4.23Z"/><path class="cls-90" d="m1160.94,423.26c-.9.9-2.8.47-4.23-.96s-1.87-3.33-.96-4.23c.9-.9,2.8-.47,4.23.96,1.43,1.43,1.87,3.33.96,4.23Z"/><polygon class="cls-24" points="988.71 1109.54 925.28 1045.54 970.94 1030.75 988.71 1109.54"/><polygon class="cls-38" points="1428.7 878.37 1443.79 863.28 1144.07 458.62 737.62 584.59 1000.68 1025.7 1050.88 1007.98 1428.7 878.37"/><polygon class="cls-46" points="323.42 697.51 323.42 727.07 531.7 1151.85 994.29 1032.18 994.29 1016.84 323.42 697.51"/><polygon class="cls-38" points="534.77 1135.36 994.29 1016.84 733.15 584.59 323.42 697.51 534.77 1135.36"/><polygon class="cls-34" points="380.76 667.78 344.11 674.25 350.57 713.06 555.42 1108.73 561.89 1043.42 380.76 667.78"/><path class="cls-46" d="m994.29,1028.59v3.59s10.59,15.09,33.59,10.3,23-34.5,23-34.5l-56.59,8.85v11.75Z"/><path class="cls-22" d="m546.79,1050.51l8.62,58.22s428.62-90.29,438.87-91.89l10.25-1.6s-.62-30.73,46.34-7.25l382.85-167.71-8.62-56.78-389.56,204.84s-7.19,1.26-14.64,3.05c-9.3,2.24-15.55,5.94-16.26,6.29-29.48,14.43-211.55-28.99-211.55-28.99-50.39-12.02-128.84-6.5-246.29,81.82Z"/><polygon class="cls-46" points="1044.17 1018.53 1050.88 1007.98 1443.79 863.28 1448.1 883.4 1044.17 1018.53"/><path class="cls-34" d="m554.7,1076.03l398.16-73.35s-177.4,7.35-180.68,5.31c-3.29-2.04-129.79,16.27-132.3,17.72-2.52,1.45-85.17,50.32-85.17,50.32Z"/><path class="cls-71" d="m1022.58,990.99c-7.18,4.39-14.36,8.77-21.54,13.16-66.92-.44-140.81,2.24-220.42,10.06-85.84,8.43-158.54,46.95-228.21,61.81-.02,0-.02,0-.02,0l-208.28-415.79c50.67-24.8,368.72-105.66,393.52-87.33,24.79,18.33,284.96,418.09,284.96,418.09Z"/><path class="cls-3" d="m1001.04,1004.15c-66.92-.44-140.81,2.24-220.42,10.06-85.84,8.43-158.54,46.95-228.21,61.81,1.78-.61,115.67-40.2,157.72-58.94,42.37-18.88,290.91-12.93,290.91-12.93Z"/><path class="cls-3" d="m678.65,584.79l-2.76,9.48s77.08,114.32,102.06,147.89c24.98,33.56,147.32,203.95,147.32,203.95l-109.9-175.08-104.51-161.6-32.21-24.64Z"/><path class="cls-34" d="m746.03,581.99s-5.18-24.94,46.57-58.7c51.75-33.76,361.53-83.69,361.53-83.69l270.97,343.9-374.23,207.72-28.29-.22-276.55-409.01Z"/><path class="cls-75" d="m1050.89,991.19s133.02-162.08,261.38-196.6l60.97-14.16-235.85-319.73-38.52-1.1-47.98,531.6Z"/><path class="cls-22" d="m1323.04,742.2s-206.5,76.51-272.16,248.99c0,.02,0,.02,0,.02l-28.29-.22-276.55-409s0,0,0-.02c.17-1.16,8.5-53.76,75.32-113.03,55.39-49.13,174.24-76.33,215.25-84.54h.02c9-1.81,14.25-2.69,14.25-2.69l51.01,67.57,16.96,22.46,201.26,266.56,2.94,3.89Z"/><path class="cls-23" d="m1090.71,1115.2l-11.98,6.66-34.57,19.22s-46-14.01-53.91-28.03c-.8-1.42-1.65-3.63-2.62-6.58-3.9-11.93-9.6-35.86-20.63-67.22-1.6-4.53-3.3-9.21-5.12-14.05-.2-.54-.41-1.09-.62-1.63-2.36-6.18-4.92-12.59-7.7-19.2-.13-.31-.26-.62-.39-.94-.1-.25-.21-.51-.32-.76-.6-1.42-1.21-2.85-1.83-4.29-.39-.9-.79-1.79-1.19-2.7-6.86-15.64-14.96-32.28-24.56-49.57-8-14.41-17.04-29.27-27.29-44.39-2.31-3.41-4.73-6.96-7.23-10.61-59.32-86.44-169.37-235.48-211.12-291.78-1.3-1.75-2.53-3.41-3.7-4.98-.02-.03-.03-.06-.06-.09-2.76-3.71-5.12-6.89-7.04-9.48-3.78-5.08-5.85-7.85-5.85-7.85,0,0,9.93-9.39,42.28-6.71,0,0,.23.28.66.83,1.67,2.09,6.44,8.09,13.65,17.28,16.14,20.58,44.46,57.21,77.39,101.93,6.48,8.8,13.14,17.91,19.92,27.28,64.21,88.7,139.25,200.08,176.05,282.73.56,1.25,1.11,2.5,1.65,3.74,0,.03.02.07.04.1,1.76,4.04,3.42,8,4.99,11.89h0c1.2,3.01,2.35,5.96,3.44,8.87,2.2,5.89,4.13,11.58,5.78,17.04.16.51.31,1.01.46,1.52,0,0,8.21,30.8,13.27,37.27,5.05,6.47,68.12,34.49,68.12,34.49Z"/><path class="cls-53" d="m794.61,958.57c-19.46,6.42-165.95,28.43-198.01,8.9-15.46-9.42-28.85-34-35.13-58.89-6.77-26.68-5.35-53.72,10.37-62.77,0,0,57.12-36.99,99.18-43.29,40.87-6.13,115.69,23.87,138.5,53.78.67.87,1.29,1.75,1.87,2.62,20.27,30.76,2.69,93.22-16.77,99.65Z"/><path class="cls-53" d="m787.05,798c-2.03-2.5-2.87-3.79-1.99-3.32.6.32,1.28,1.49,1.99,3.32Z"/><path class="cls-37" d="m794.61,958.57c-19.46,6.42-165.95,28.43-198.01,8.9-15.46-9.42-28.85-34-35.13-58.89,13.65,22.32,35.25,50.99,55.17,49,32.36-3.21,153.53,1.27,174.36-21.73,15.07-16.63,19.17-57.07,18.51-79.55.67.87,1.29,1.75,1.87,2.62,20.27,30.76,2.69,93.22-16.77,99.65Z"/><path class="cls-53" d="m677.8,930.23c-106.47,6.83-142.82-62.76-142.82-62.76-7.72-10.05-10.05-19.6-8.34-28.51,8.04-42,105.98-69.66,154.88-67.85,46.13,1.71,89.58,26.51,108.74,44.45,5.47,5.12,8.95,9.67,9.96,12.98,4.57,14.91-15.96,94.86-122.43,101.69Z"/><path class="cls-47" d="m677.8,930.23c-106.47,6.83-142.82-62.76-142.82-62.76-7.72-10.05-10.05-19.6-8.34-28.51,15.45,25.32,46.85,68.19,80.16,63.77,46.99-6.22,138.62-29.99,161.24-58.4,10.03-12.6,16.95-22.49,22.23-28.77,5.47,5.12,8.95,9.67,9.96,12.98,4.57,14.91-15.96,94.86-122.43,101.69Z"/><path class="cls-5" d="m542.08,868.67s9.71-18.47,14.93-10.33c5.23,8.15-10.56,23.27-14.93,10.33Z"/><path class="cls-5" d="m661.7,849.9s36.31,6.38,31.12,16.27c-5.19,9.88-2.45,1.22-14.24.27-11.79-.96-26.82-7.48-16.88-16.53Z"/><path class="cls-5" d="m743.54,804.17c11.87-15.99,20.78-7.91,27.86-3.05s-37.77,16.39-27.86,3.05Z"/><path class="cls-5" d="m667.5,764.31c8.11-12.01,15.09,19.19,8.59,15.87-6.51-3.33-13.22-9-8.59-15.87Z"/><path class="cls-71" d="m876.85,688.33s21.41-84.17,196.06-154.24l130.45,163.42s-170.31,99.12-195.14,190.75l-131.38-199.92Z"/><path class="cls-5" d="m488.2,682.05c-.58-.9-1.94-1.39-4.07-1.44-2.13-.06-4.14.18-6.02.71-1.89.53-3.22,1.22-4,2.09-.77.87-1.35,1.99-1.73,3.37-.76-1.06-1.64-1.77-2.65-2.14-1.02-.36-2.27-.34-3.76.08-2.91.81-3.61,2.4-2.1,4.76l9.38,14.6c.68,1.05,1.61,1.73,2.78,2.04,1.18.3,2.42.28,3.71-.09,1.31-.37,2.23-.94,2.74-1.71.52-.77.43-1.68-.25-2.75l-2.81-4.37c-1.01-1.58-1.79-2.94-2.31-4.08-.53-1.14-.82-2.18-.87-3.1s.21-1.7.79-2.34c.57-.64,1.52-1.14,2.83-1.51.96-.27,2.16-.46,3.56-.57,1.42-.12,2.28-.22,2.61-.31.88-.24,1.56-.68,2.05-1.31.49-.63.53-1.26.11-1.9Z"/><path class="cls-5" d="m531.58,685.02c-.35-.54-.9-.87-1.66-1.01-.76-.13-1.6-.07-2.52.18-.86.24-1.44.54-1.75.9-.72.93-1.31,1.67-1.79,2.23-.47.56-1.02,1.1-1.66,1.65-.63.54-1.34,1.01-2.13,1.42-.79.39-1.73.74-2.8,1.04-1.61.45-3.21.63-4.84.54-1.62-.09-3.12-.47-4.51-1.16-1.38-.68-2.47-1.62-3.26-2.8l17.56-4.91c2.34-.66,4.04-1.36,5.08-2.12,1.04-.75,1.14-1.79.29-3.11-.91-1.42-2.43-2.64-4.56-3.66-2.13-1.02-4.73-1.61-7.8-1.78-3.06-.17-6.35.24-9.86,1.23-2.69.76-4.99,1.69-6.88,2.82-1.89,1.13-3.28,2.38-4.19,3.75-.9,1.37-1.33,2.82-1.27,4.37.06,1.54.59,3.09,1.59,4.64,2.12,3.3,5.39,5.45,9.82,6.48,4.44,1.03,9.54.74,15.3-.87,2.53-.71,4.63-1.52,6.32-2.45,1.7-.93,3-1.86,3.91-2.8.9-.94,1.47-1.82,1.7-2.64.23-.81.19-1.45-.11-1.93Zm-28.83,0c-.83-1.85-.82-3.43.04-4.74.86-1.31,2.41-2.27,4.64-2.9,2.34-.65,4.52-.74,6.53-.24,2.01.49,3.7,1.6,5.07,3.33l-16.28,4.55Z"/><path class="cls-5" d="m571.23,672.77c-.35-.54-1.05-.97-2.09-1.25-1.03-.28-2.1-.27-3.19.03-.92.26-1.59.65-2.01,1.16s-.72,1.14-.89,1.88c-.35,1.27-1,2.34-1.97,3.18-.98.84-2.36,1.52-4.15,2.02-1.34.37-2.66.57-3.97.57-1.31.02-2.55-.16-3.71-.52-1.16-.36-2.22-.9-3.16-1.61-.95-.71-1.74-1.56-2.37-2.54-1.35-2.1-1.61-3.98-.76-5.65.85-1.66,2.6-2.86,5.25-3.6,1.84-.52,3.52-.7,5.03-.54,1.5.15,3.12.56,4.84,1.23.94.33,1.72.54,2.36.62.64.09,1.33.02,2.07-.18,1.14-.32,1.98-.81,2.49-1.47.52-.66.57-1.3.17-1.93-.39-.61-1.17-1.18-2.34-1.69-1.16-.51-2.63-.89-4.38-1.14-1.75-.25-3.72-.31-5.92-.16-2.2.14-4.45.54-6.78,1.19-3.75,1.05-6.68,2.4-8.8,4.06-2.12,1.66-3.35,3.51-3.71,5.56-.37,2.05.14,4.15,1.53,6.3,2.04,3.18,5.22,5.27,9.54,6.29,4.33,1.01,9.27.75,14.82-.8,2.6-.72,4.82-1.59,6.64-2.58s3.19-2.01,4.14-3.07c.94-1.05,1.5-2.05,1.69-2.98.19-.93.08-1.72-.35-2.38Z"/><path class="cls-5" d="m590.16,671.38l-9.74-15.15c-.6-.94-1.49-1.55-2.68-1.83-1.2-.28-2.45-.24-3.77.13-1.31.36-2.21.93-2.7,1.68-.48.76-.39,1.64.28,2.68l9.64,15c.66,1.03,1.57,1.7,2.75,2.02,1.17.32,2.42.3,3.74-.07,1.31-.37,2.23-.94,2.73-1.72.51-.78.43-1.69-.24-2.75Zm-14.87-23.15c-.54-.83-1.39-1.34-2.57-1.53-1.18-.18-2.34-.11-3.51.21-1.2.34-2.11.87-2.71,1.61-.61.74-.67,1.48-.19,2.22.53.82,1.38,1.33,2.56,1.53,1.17.2,2.38.13,3.64-.22,1.2-.34,2.1-.86,2.68-1.56.59-.7.62-1.45.1-2.26Z"/><path class="cls-5" d="m629.62,653.01c-1.39-2.05-3.27-3.65-5.65-4.79-2.37-1.15-4.98-1.79-7.84-1.95-2.86-.17-5.67.13-8.43.87-2.31.61-4.19,1.43-5.64,2.45-1.46,1.03-2.64,2.34-3.56,3.93l-.41-.6c-.6-.89-1.46-1.46-2.59-1.72-1.13-.26-2.32-.22-3.6.12-1.29.35-2.16.85-2.59,1.52-.43.66-.33,1.46.31,2.4l14.42,21.25c.73,1.07,1.56,1.82,2.49,2.23.93.41,2.23.39,3.93-.06,2.87-.77,3.58-2.23,2.11-4.4l-5.02-7.4c2.32.68,4.55,1.06,6.67,1.16,2.13.09,4.48-.2,7.05-.89,2.12-.57,3.96-1.33,5.5-2.29,1.53-.96,2.7-2.05,3.48-3.28.77-1.22,1.12-2.57,1.04-4.05-.09-1.48-.64-2.97-1.67-4.49Zm-7.87,6.12c-.13,1.16-.66,2.14-1.61,2.96-.94.82-2.17,1.42-3.66,1.83-2.5.67-4.96.68-7.4.05-2.43-.63-4.31-1.93-5.63-3.89-1.42-2.08-1.64-3.88-.66-5.41.98-1.53,2.7-2.63,5.18-3.29,1.56-.42,3.16-.55,4.78-.39,1.62.16,3.11.6,4.47,1.34,1.35.74,2.47,1.76,3.35,3.06.91,1.35,1.31,2.6,1.19,3.75Z"/><path class="cls-5" d="m672.06,646.84c-.35-.48-.89-.77-1.65-.89-.76-.11-1.6-.05-2.52.19-.86.22-1.44.5-1.75.82-.73.83-1.34,1.49-1.81,1.99-.48.5-1.04.99-1.67,1.48-.64.5-1.35.92-2.15,1.28-.8.35-1.74.68-2.81.95-1.61.41-3.22.58-4.84.52-1.62-.06-3.12-.39-4.49-.99-1.38-.6-2.45-1.42-3.23-2.46l17.59-4.53c2.35-.61,4.05-1.24,5.1-1.92,1.05-.68,1.16-1.61.32-2.77-.9-1.25-2.41-2.32-4.53-3.21-2.12-.89-4.71-1.39-7.77-1.51-3.06-.12-6.35.28-9.87,1.18-2.7.7-5,1.55-6.9,2.57-1.9,1.01-3.3,2.14-4.22,3.37-.91,1.23-1.35,2.53-1.3,3.9.05,1.37.56,2.74,1.54,4.11,2.08,2.91,5.33,4.8,9.75,5.67,4.43.87,9.53.56,15.3-.93,2.53-.65,4.63-1.39,6.33-2.23,1.71-.84,3.01-1.68,3.93-2.53.92-.85,1.49-1.64,1.73-2.36s.2-1.29-.09-1.71Zm-28.81.25c-.81-1.64-.79-3.04.09-4.21.87-1.16,2.42-2.04,4.66-2.61,2.35-.61,4.52-.7,6.53-.28,2,.42,3.67,1.38,5.03,2.91l-16.3,4.19Z"/><polygon class="cls-21" points="453 755.46 658.46 696.31 665.96 711.17 459.11 770.99 453 755.46"/><polygon class="cls-21" points="471.32 789.25 606.45 746.12 610.18 758.34 475.8 801.71 471.32 789.25"/><path class="cls-48" d="m1127.55,688.33s-12.59,31.2-36.84,42.69c-24.26,11.51-33.61,11.14-33.61,11.14l-30.76-34.96-37.63-42.78,62.17-51.28,18.76-13.25,36.89,56.32,21.02,32.11Z"/><path class="cls-32" d="m990.26,650.92s40.25-45.58,69.72-51.01c29.47-5.44-17.1,29.21-25.44,43.51s-59.37,39.52-44.28,7.5Z"/><path class="cls-3" d="m1030.51,696.29c1.44.72,42.17,29.47,42.17,29.47,0,0,24.44-.24,43.12-32.34l-25.1-48.16c-4.36,7.74-11.65,18.59-23.3,28.99-13.87,12.38-27.88,18.76-36.9,22.04Z"/><path class="cls-38" d="m1004.4,770.99s-24.92,28.56-14.14,37.19,115.85-61.89,121.95-82.42c6.1-20.52-62.29,15.56-64.69,16.41-2.4.84-43.12,28.82-43.12,28.82Z"/><path class="cls-42" d="m1004.64,787.09s-17.25-10.78-14.38-34.5c2.88-23.72,43.6-46.56,60.61-46.28,17.01.28,36.06,14.65,39.83,24.72,3.77,10.06-86.07,56.06-86.07,56.06Z"/><polygon class="cls-34" points="1050.88 996.48 1427.31 798 1428.38 805.05 1050.88 996.48"/><polygon class="cls-21" points="552.38 1088.25 795 1043.42 553.7 1097.15 552.38 1088.25"/><polygon class="cls-21" points="1290.46 888.55 1430.52 819.17 1432.19 830.16 1290.46 888.55"/><path class="cls-21" d="m866.64,643.41s51.18-79.03,167.9-123.29l-5.97-8.32s-128.86,47.35-172.71,121.07l10.78,10.54Z"/><path class="cls-21" d="m844.36,617.14s35.94-60.05,140.16-105.33l-10.06-11.5s-113.56,51.03-140.87,107.09l10.78,9.74Z"/><path class="cls-28" d="m1010.03,1007.98s-6.11,23.12,8.98,22.76c15.09-.36,27.31-17.13,16.89-22.76-10.42-5.63-24.8-6.56-25.87,0Z"/><path class="cls-3" d="m1323.04,742.2s-206.5,76.51-272.16,248.99c.35-1.5,17.41-73.69,88.97-137.33,66.95-59.55,139.84-103.85,180.25-115.55l2.94,3.89Z"/><path class="cls-50" d="m624.89,831.92s-11.68,15.66-34.16,10.13c-22.47-5.53-29.37-18.4-7.5-33.15,21.87-14.75,67.64-20.32,79.76-14.31,12.12,6.01-3.95,27.2-38.11,37.33Z"/><polygon class="cls-3" points="1101.89 449.28 1320.1 738.3 1312.26 740.84 1101.89 449.28"/><path class="cls-62" d="m461.41,479.42c-.94,9.79-2.52,18.63-4.65,26.6h0c-23.32,87.15-112.71,71.38-158.79,56.75-3.22-1.02-6.24-2.05-9-3.02,6.12-56.21,37.76-142.4,37.76-142.4h114.71c8.24,23.96,14.79,44.48,19.98,62.06Z"/><path class="cls-72" d="m469.95,570.41c0,6.93-20.21,16.08-73.53,22.11-53.32,6.03-77.45-8.83-89.24-16.6-11.79-7.77-8.96-16.48-8.96-16.48,3.25-9.95,7.68-26.41,12.33-44.8.49-1.9.97-3.83,1.45-5.77,1.08-4.33,2.17-8.73,3.25-13.15,6.89-28.11,13.57-56.99,17.02-72.07,1.52-6.67,2.42-10.63,2.42-10.63l99.1,11.63s2.45,17.44,6.79,35.97c2.08,8.9,4.6,18.04,7.49,25.63,1.09,2.87,2.24,5.52,3.44,7.85.16.31.31.6.47.89.58,1.07,1.14,2.21,1.69,3.4,10.21,22.16,16.27,65.44,16.27,72.01Z"/><path class="cls-58" d="m440.58,460.62c-47.73,13.89-88.25-17.07-108.31-36.97,1.52-6.67,2.42-10.63,2.42-10.63l99.1,11.63s2.45,17.44,6.79,35.97Z"/><path class="cls-25" d="m325.72,413.02c.01-.13.02-.31.04-.52-.03.17-.04.35-.04.52Z"/><path class="cls-25" d="m442.44,413.33c0,11.93-26.13,21.6-58.37,21.6s-57.57-9.38-58.35-21.06c-.01-.18-.02-.36-.02-.54,0,0,0-.1.01-.31.01-.13.02-.31.04-.52,0-.09.01-.18.03-.28.64-7.18,6.53-46.84,58.3-48.42,0,0,20.61-.17,37.34,10.77,10.8,7.05,19.98,18.72,20.99,38.04.02.24.03.48.04.72Z"/><path class="cls-46" d="m350.04,402.94c-.95,1.83-4.1,2.09-7.04.57-2.94-1.52-4.54-4.24-3.59-6.08.95-1.83,4.1-2.09,7.04-.57,2.94,1.52,4.54,4.24,3.59,6.08Z"/><path class="cls-46" d="m368.37,386.26c-.95,1.83-4.1,2.09-7.04.57-2.94-1.52-4.54-4.24-3.59-6.08.95-1.83,4.1-2.09,7.04-.57,2.94,1.52,4.54,4.24,3.59,6.08Z"/><path class="cls-64" d="m442.44,413.33c0,11.93-26.13,21.6-58.37,21.6s-57.57-9.38-58.35-21.06c25.72,3.9,103.64,11.63,95.7-39.31,10.8,7.05,19.98,18.72,20.99,38.04.02.24.03.48.04.72Z"/><path class="cls-46" d="m430.59,396.69c.92,1.85-.73,4.55-3.68,6.02-2.96,1.48-6.1,1.18-7.03-.67s.73-4.55,3.68-6.02c2.96-1.48,6.1-1.18,7.03.67Z"/><path class="cls-46" d="m413.72,380.83c.92,1.85-.73,4.55-3.68,6.02-2.96,1.48-6.1,1.18-7.03-.67-.92-1.85.73-4.55,3.68-6.02,2.96-1.48,6.1-1.18,7.03.67Z"/><path class="cls-46" d="m394.06,403.52c-.14,2.06-2.93,3.55-6.23,3.33-3.3-.22-5.86-2.08-5.72-4.14.14-2.06,2.93-3.55,6.23-3.33,3.3.22,5.86,2.08,5.72,4.14Z"/><path class="cls-46" d="m391.67,376.84c-.14,2.06-2.93,3.55-6.23,3.33-3.3-.22-5.86-2.08-5.72-4.14.14-2.06,2.93-3.55,6.23-3.33,3.3.22,5.86,2.08,5.72,4.14Z"/><path class="cls-81" d="m453.68,498.4c-6.19,16.87-48.71,45.77-64.55,47.16-16.47,1.45-78.58-30.92-78.58-30.92.49-1.9.97-3.83,1.45-5.77,1.08-4.33,2.17-8.73,3.25-13.15h0c11.75-10.45,32.33-8.58,51.79-11.57,19.46-2.99,32.93-9.36,47.15-3.37,9.32,3.93,25.08,2.37,33.88,5.47,1.09,2.87,2.24,5.52,3.44,7.85.16.31.31.6.47.89.58,1.07,1.14,2.21,1.69,3.4Z"/><path class="cls-3" d="m456.76,506.02h0c-23.32,87.15-112.71,71.38-158.79,56.75-.17-2.04.26-3.33.26-3.33,3.59-10.98,8.61-29.9,13.78-50.56,6-5.29,5.9-3.5,23.25.16,21.32,4.49,27.01,10.43,49.14,7.45,22.14-2.97,42.9-2.97,58.05-17.56,3.22-3.09,6.26-4.52,9.07-4.83.16.31.31.6.47.89,1.69,3.14,3.29,6.89,4.77,11.02Z"/><path class="cls-66" d="m480.15,580.09c0,19.64-43.01,35.55-96.07,35.55s-96.07-15.91-96.07-35.55c-.2-6.09.16-12.95.96-20.33,2.76.97,5.78,1.99,9,3.02.25,3.25,1.98,8.38,9.22,13.15,11.79,7.77,35.92,22.63,89.24,16.6,53.32-6.03,73.53-15.18,73.53-22.11,0-5.88-4.86-41.15-13.19-64.38h0c2.13-7.98,3.71-16.82,4.65-26.61,24.97,84.41,18.74,100.67,18.74,100.67Z"/><path class="cls-81" d="m469.95,570.41c0,6.93-20.21,16.08-73.53,22.11-53.32,6.03-77.45-8.83-89.24-16.6-7.24-4.77-8.97-9.9-9.22-13.15,46.08,14.63,135.47,30.4,158.79-56.74,8.34,23.23,13.19,58.5,13.19,64.38Z"/><path class="cls-3" d="m332.97,458.68c-1.24,7.23-.85,13.33.88,13.63,1.73.3,4.13-5.32,5.37-12.56,1.24-7.23.85-13.33-.88-13.63-1.73-.3-4.13,5.32-5.37,12.56Z"/><path class="cls-52" d="m836.49,704.25c-.28-1.26-.59-2.57-.93-3.91-.36-1.42-.76-2.9-1.2-4.4-4.89-16.82-14.77-37.99-34.6-51.68-2.64-1.83-5.46-3.52-8.47-5.05-1.31-.67-2.65-1.31-4.04-1.91-15.08-6.3-31-4.32-40.2,3.95-.87.77-1.66,1.6-2.39,2.48-.65.77-1.25,1.58-1.79,2.44-.69,1.08-1.29,2.23-1.79,3.43-.96,2.29-1.52,4.67-1.7,7.09-.1,1.24-.1,2.47,0,3.72.03.58.09,1.16.18,1.75.11.79.27,1.59.45,2.38,2.3,9.76,10.03,19.21,21.28,24.96,1.12.58,2.27,1.12,3.45,1.61-1.61-.67-3.22-1.25-4.83-1.73-6.37-1.92-12.74-2.42-18.55-1.64-9.02,1.21-16.71,5.47-21,12.24-.69,1.08-1.29,2.23-1.79,3.43-.24.57-.45,1.14-.64,1.72-.77,2.35-1.14,4.78-1.14,7.24,0,.36,0,.73.03,1.1.54,12.37,10.32,25.13,25.41,31.45,0,0,.09.03.26.1.89.34,4.05,1.5,8.82,2.7,0,0,.02,0,.02,0,17.86,4.48,58.29,9.5,87.8-25.5,0,0-.29-7.39-2.64-17.98Zm-69.46-11.76v-27.63c-1.61-.78-3.15-1.64-4.62-2.55-9.6-5.96-15.66-13.97-15.87-14.26h0s1-1.56,3.01-3.36c5.43-4.86,18.25-11.53,38.9,5.43,2.05,1.69,3.97,3.49,5.75,5.39,10.8,11.47,16.8,26.27,20.12,38.66,2.25,8.42,3.27,15.73,3.72,20.14-25.39,14.84-52.84,11.03-66.71,7.55,0,0-.02,0-.02,0-4.77-1.2-7.92-2.36-8.82-2.7-.17-.07-.26-.1-.26-.1-2.55-1.07-4.95-2.31-7.18-3.72-10.68-19.36,31.98-22.84,31.98-22.84Z"/><path class="cls-52" d="m839.13,696.36v25.87l-55.05,15.4-47.9-7.37-19.36-16.78-.03-.02v-27.87h.02l24.56,2.16,18.55,1.64,1.38.12,5.74.51v2.48s-42.65,3.49-31.98,22.84c2.23,1.41,4.63,2.65,7.18,3.72,0,0,.09.03.26.1.9.34,4.05,1.5,8.82,2.7,0,0,.02,0,.02,0,13.86,3.48,41.32,7.29,66.71-7.55-.45-4.41-1.47-11.72-3.72-20.14l20.05,1.77,4.76.42Z"/><path class="cls-52" d="m767.03,668.63v1.86l-27.03-5.95-.63-.14v-33.65h0s3.84,5.26,3.84,5.26l3.82,5.24,2.5,3.44c-2.01,1.8-3.01,3.35-3.01,3.35h0c.21.29,6.27,8.3,15.87,14.27l2.05,2.82h0s2.56,3.51,2.56,3.51Z"/><path class="cls-25" d="m839.13,696.36c-1.17,1.39-2.36,2.71-3.56,3.98-5.59,5.88-11.5,10.44-17.52,13.97-.45-4.41-1.47-11.72-3.72-20.14-3.32-12.39-9.32-27.19-20.12-38.66-1.78-1.9-3.7-3.7-5.75-5.39-20.65-16.96-33.47-10.29-38.9-5.43-2.01,1.8-3.01,3.35-3.01,3.35h0c.21.29,6.27,8.3,15.87,14.27,1.46.91,3.01,1.77,4.62,2.55v27.63s-33.16,2.71-33.68,16.63c-.07,1.86.45,3.93,1.71,6.22-6.52-4.1-11.57-9.49-14.7-15.35-2.32-4.34-3.57-8.95-3.57-13.48,0-.31,0-.61.02-.92.11-2.74.68-5.45,1.76-8.04,3.42-8.19,11.24-13.54,20.81-15.34.06-.02.12-.02.18-.04,7.66-1.4,16.41-.54,24.91,2.96-9.88-4.19-17.44-11.16-21.6-18.95-2.01-3.75-3.21-7.7-3.49-11.63-.1-1.24-.1-2.49,0-3.72v-.02s0-.03,0-.05c.18-2.39.74-4.75,1.69-7.03,6.22-14.86,26.89-20.36,46.17-12.3,1.39.61,2.74,1.24,4.04,1.91,45.49,23.15,47.84,83.02,47.84,83.02Z"/><path class="cls-52" d="m799.76,644.26c-.87,4.73-2.39,8.73-3.94,10.46-.31.35-.87.61-1.62.79-1.78-1.9-3.7-3.7-5.75-5.39-5.11-4.2-9.75-6.95-13.91-8.64h0c-.86-.35-1.69-.65-2.51-.91-1.02-.32-2-.58-2.95-.79-1.71-.36-3.31-.54-4.82-.56-1.1-.02-2.15.03-3.14.16-5.33.66-9.17,3.16-11.57,5.31-2.01,1.8-3.01,3.35-3.01,3.35,0,0-.98-1.68-1.88-4.31-.72-2.09-1.38-4.79-1.43-7.72-.11-5.29,1.76-11.31,8.84-15.83,2.51-1.6,5.11-2.84,7.75-3.78,1.82-.64,3.65-1.13,5.48-1.49h.05c2.62-.52,5.23-.76,7.77-.76h.02c.76,0,1.5.02,2.24.06.8.04,1.6.11,2.38.2,7.58.85,14.18,3.71,18.07,7.37,5.03,4.74,5.39,14.61,3.94,22.47Z"/><path class="cls-10" d="m806.41,630.74s21.49,9.79,30.09,68.58c0,0-7.63,7.79-12.04,10.78-4.42,2.99-1.23-21.53-6.42-30.05-5.18-8.52-11.63-17.78-13.24-24.55-1.61-6.77-2.76-24.1,1.61-24.76Z"/><path class="cls-52" d="m764.14,669.19s-14.19-6.61-28.79-1.15c-14.6,5.45-16.12,20.27-13.82,25.56,2.3,5.3-4.38-9.9,9.67-17.04,14.05-7.14,32.93,1.84,32.93,1.84v-9.21Z"/><path class="cls-46" d="m839.13,701.29v20.94c-10.86,12.88-23.19,20.34-35.33,24.4-.64.21-1.27.41-1.9.61-1.23.38-2.45.72-3.67,1.03-7.19,1.83-14.22,2.57-20.74,2.62-1.54.02-3.05,0-4.53-.06-1.64-.06-3.24-.17-4.79-.3-6.65-.56-12.42-1.7-16.83-2.8,0,0-.02,0-.02,0-4.77-1.2-7.93-2.36-8.82-2.7-.17-.07-.26-.1-.26-.1-15.1-6.32-24.87-19.08-25.41-31.45l-.03-.02v-10.65c.32.74.7,1.53,1.14,2.34,3.94,7.29,12.83,16.93,32.63,19.89,5.06.76,10.06,1.43,14.99,1.92,2.28.23,4.55.41,6.8.54,1.35.09,2.69.14,4.03.19,7.47.24,14.76-.17,21.86-1.57,1.6-.31,3.18-.68,4.75-1.11,1.05-.28,2.1-.59,3.15-.93,10.64-3.41,20.8-9.55,30.36-19.81.88-.95,1.76-1.94,2.64-2.96Z"/><path class="cls-46" d="m761.11,639.37c-5.33.66-9.17,3.16-11.57,5.31-2.01,1.8-3.01,3.35-3.01,3.35,0,0-.98-1.68-1.88-4.31-.72-2.09-1.38-4.79-1.43-7.72-.11-5.29,1.76-11.31,8.84-15.83,2.51-1.6,5.11-2.84,7.75-3.78l1.3,22.98Z"/><path class="cls-46" d="m773.13,614.16l-4.07,25.62c-1.71-.36-3.31-.54-4.82-.56l1.04-24.31h.05s7.77-.76,7.77-.76h.02Z"/><path class="cls-46" d="m777.75,614.42l-3.22,27.06h0c-.86-.35-1.69-.65-2.51-.91l3.36-26.34c.8.04,1.6.11,2.38.2Z"/><path class="cls-52" d="m767.03,682.78v9.71s-33.16,2.71-33.68,16.63c-1.61-2.52-3.53-5.81-4.82-8.99-2.61-6.45.77-19.19,11.67-21.8,10.9-2.61,26.84,4.45,26.84,4.45Z"/><path class="cls-3" d="m750.44,665.88c0,.61-1.9,1.11-4.25,1.11s-4.25-.5-4.25-1.11,1.9-1.11,4.25-1.11,4.25.5,4.25,1.11Z"/><path class="cls-3" d="m810.28,633.43c-.36.49-2.19-.23-4.08-1.61s-3.14-2.91-2.78-3.4c.36-.49,2.19.23,4.08,1.61,1.89,1.38,3.14,2.91,2.78,3.4Z"/><path class="cls-52" d="m798.23,726.1v22.17c-7.19,1.83-14.22,2.57-20.74,2.62l-1.12-23.21c7.47.24,14.76-.17,21.86-1.57Z"/><path class="cls-52" d="m772.95,750.83c-1.64-.06-3.24-.17-4.79-.3l-2.62-23.59c2.28.23,4.55.41,6.8.54l.61,23.35Z"/><path class="cls-52" d="m806.13,724.06l-2.33,22.57c-.64.21-1.27.41-1.9.61l1.08-22.24c1.05-.28,2.1-.59,3.15-.93Z"/><path class="cls-82" d="m1078.73,1121.85l-34.57,19.22s-46-14.01-53.91-28.03c-.8-1.42-1.65-3.63-2.62-6.58,7.62-12.29,23.68-24.43,56.53-9.31,18.85,8.68,29.17,17.22,34.57,24.7Z"/><path class="cls-3" d="m352.07,676.14s78.44,132.78,98.95,173.76c20.52,40.97,86.83,197.12,86.83,197.12l-185.78-370.88Z"/><ellipse class="cls-24" cx="323.55" cy="966.79" rx="69.87" ry="35.88"/><path class="cls-46" d="m354.39,929.59c-.73-.7-1.49-1.39-2.29-2.06-12.55-10.59-33.84-17.32-57.86-16.86-23.84.46-44.71,7.89-56.88,18.81-.85.76-1.65,1.53-2.41,2.32-5.78,6.02-9.02,12.94-8.88,20.25.36,18.44,22.11,33.56,51.4,37.65.55.08,1.1.15,1.65.22,2.91.36,5.89.62,8.92.75,2.54.12,5.12.15,7.74.1,2.16-.04,4.3-.14,6.41-.3,1.24-.09,2.46-.19,3.68-.32,1.54-.16,3.07-.35,4.58-.57,30.94-4.51,53.87-21,53.5-40.19-.14-7.28-3.61-14.04-9.57-19.81Zm-59.16,18.13c-23.74.46-44.66-6.3-56.38-16.82,11.36-10.82,31.87-18.27,55.43-18.72,23.73-.46,44.65,6.3,56.37,16.81-11.35,10.82-31.87,18.27-55.42,18.73Z"/><path class="cls-46" d="m225.4,912.01l.43,25.56.25,14.49,137.88-2.66-.23-13.77-.45-26.28-137.88,2.66Zm69.83,35.71c-23.74.46-44.66-6.3-56.38-16.82,11.36-10.82,31.87-18.27,55.43-18.72,23.73-.46,44.65,6.3,56.37,16.81-11.35,10.82-31.87,18.27-55.42,18.73Z"/><path class="cls-52" d="m360.08,909.41c0-.07,0-.14,0-.21,0-.44-.03-.88-.07-1.32-6.73.56-14.94,1.29-22.03,1.95-8.87.84-16.01,1.59-16.36,1.82-.19.12-4-.4-9.97-1.31-19.82-3.01-63.52-10.32-78.13-12.78-3.04,4.41-4.67,9.19-4.58,14.17,0,.07,0,.14.01.21l-3.56.07.43,25.56c4.46,1.54,10.86,4.12,15.23,7.48,2.59,1.99,7.68,4.3,13.47,6.47,10.51,3.94,23.31,7.41,27.65,7.63,6.74.35,40.76-4.63,51.03-7.71,1.2-.36,2.59-.88,4.11-1.52,7.91-3.32,19.38-9.89,26.41-14.28l-.45-26.28-3.19.06Zm-64.85,38.31c-23.74.46-44.66-6.3-56.38-16.82,11.36-10.82,31.87-18.27,55.43-18.72,23.73-.46,44.65,6.3,56.37,16.81-11.35,10.82-31.87,18.27-55.42,18.73Z"/><path class="cls-25" d="m293.56,870.62c-38.07.73-68.59,19.26-68.16,41.38.14,7.27,3.61,14.04,9.56,19.8,12.14,11.77,34.6,19.41,60.15,18.92,25.49-.49,47.59-8.95,59.28-21.14,5.78-6.01,9.02-12.93,8.88-20.24-.43-22.12-31.64-39.46-69.71-38.72Zm1.67,77.1c-23.74.46-44.66-6.3-56.38-16.82,11.36-10.82,31.87-18.27,55.43-18.72,23.73-.46,44.65,6.3,56.37,16.81-11.35,10.82-31.87,18.27-55.42,18.73Z"/><path class="cls-52" d="m289.36,912.38h0c-2.46.15-4.88.38-7.25.68-1,.12-2,.26-2.98.41-1.85.28-3.67.61-5.45.99-1.31.27-2.61.57-3.87.89-2.43.6-4.78,1.29-7.05,2.05-9.82,3.29-18.07,7.95-23.9,13.5-.51-.46-1.02-.93-1.49-1.41-5.2-5.16-8.23-11.13-8.41-17.55,0-.07,0-.14-.01-.21-.1-4.98,1.54-9.76,4.58-14.17,5.5-7.97,15.61-14.68,28.48-19.04,2.27-.76,4.62-1.46,7.05-2.07,2.44-.62,4.97-1.15,7.56-1.61,1.87-.33,3.78-.61,5.72-.84,1.15-.14,2.3-.26,3.47-.36,2.62-.24,5.28-.38,7.99-.43.41,0,.82-.02,1.23-.02l2.08.23s9.91,3.18,10.85,14.22c.93,11.03-12.57,23.16-18.59,24.73Z"/><path class="cls-52" d="m360.08,909.2c0,.07,0,.14,0,.21.07,6.52-2.83,12.71-7.97,18.13-.46.49-.95.98-1.46,1.46-8.11-7.28-20.65-12.76-35.48-15.29.67-2.38-.51-6.9,2.13-14.23,3.54-9.8,13.13-10.71,17.62-14.16,1.39-1.07,1.56-2.61.99-4.29,14,6.3,23.2,15.89,24.09,26.85.04.44.06.87.07,1.32Z"/><path class="cls-46" d="m262,878.52l.75,38.88c-9.82,3.29-18.07,7.95-23.9,13.5-.51-.46-1.02-.93-1.49-1.41-5.2-5.16-8.23-11.13-8.41-17.55,0-.07,0-.14-.01-.21-.1-4.98,1.54-9.76,4.58-14.17,5.5-7.97,15.61-14.68,28.48-19.04Z"/><path class="cls-46" d="m276.61,874.85l-2.94,39.61c-1.31.27-2.61.57-3.87.89l-.75-38.9c2.44-.62,4.97-1.15,7.56-1.61Z"/><path class="cls-46" d="m285.8,873.65l-3.7,39.41c-1,.12-2,.26-2.98.41l3.21-39.47c1.15-.14,2.3-.26,3.47-.36Z"/><path class="cls-52" d="m302.73,953.46l-.52,37.02c-2.11.16-4.25.26-6.41.3-2.62.05-5.2.01-7.74-.1l-.73-37.88,15.4.66Z"/><path class="cls-52" d="m312.94,952.3l-2.48,37.28c-1.5.22-3.03.41-4.58.57l-.73-37.7,7.79-.15Z"/><path class="cls-52" d="m279.14,989.93c-.56-.07-1.1-.14-1.65-.22l-5.18-34.94,4.01-.08,2.82,35.24Z"/><path class="cls-3" d="m304.68,875.04c-.06.87-2.27,1.42-4.92,1.23s-4.76-1.05-4.69-1.93c.06-.87,2.27-1.42,4.92-1.23s4.76,1.05,4.69,1.93Z"/><path class="cls-3" d="m313.32,949.79c.12.86-1.91,1.87-4.55,2.24-2.64.37-4.87-.02-4.99-.89-.12-.86,1.91-1.87,4.55-2.24,2.64-.37,4.87.02,4.99.89Z"/></g></svg>